<?xml version="1.0" encoding="UTF-8"?>
<svg id="Layer_1" xmlns="http://www.w3.org/2000/svg" xmlns:xlink="http://www.w3.org/1999/xlink" version="1.1" viewBox="0 0 1423.71 657.81">
  <!-- Generator: Adobe Illustrator 30.1.0, SVG Export Plug-In . SVG Version: 2.1.1 Build 136)  -->
  <defs>
    <style>
      .st0 {
        filter: url(#drop-shadow-1);
      }

      .st1 {
        filter: url(#drop-shadow-2);
      }

      .st2 {
        fill: #605c40;
      }
    </style>
    <filter id="drop-shadow-1" x="176.04" y="455.61" width="1085.52" height="126.72" filterUnits="userSpaceOnUse">
      <feOffset dx="7" dy="7"/>
      <feGaussianBlur result="blur" stdDeviation="5"/>
      <feFlood flood-color="#fff" flood-opacity=".75"/>
      <feComposite in2="blur" operator="in"/>
      <feComposite in="SourceGraphic"/>
    </filter>
    <filter id="drop-shadow-2" x="69" y="89.37" width="1299.6" height="197.76" filterUnits="userSpaceOnUse">
      <feOffset dx="7" dy="7"/>
      <feGaussianBlur result="blur1" stdDeviation="5"/>
      <feFlood flood-color="#fff" flood-opacity=".75"/>
      <feComposite in2="blur1" operator="in"/>
      <feComposite in="SourceGraphic"/>
    </filter>
  </defs>
  <g class="st0">
    <g>
      <path class="st2" d="M200.74,464.75v17.72h-1.85v-8.18h-11.09v8.18h-1.87v-17.72h1.87v7.9h11.09v-7.9h1.85Z"/>
      <path class="st2" d="M204.78,475.83c0-3.96,2.88-6.76,6.79-6.76s6.76,2.82,6.76,6.76-2.86,6.79-6.76,6.79-6.79-2.83-6.79-6.79ZM216.51,475.83c0-3.12-2.1-5.19-4.94-5.19s-4.97,2.07-4.97,5.19,2.12,5.19,4.97,5.19,4.94-2.07,4.94-5.19Z"/>
      <path class="st2" d="M234.01,469.17v13.32h-1.72v-2.44c-.93,1.61-2.66,2.56-4.79,2.56-3.39,0-5.62-1.9-5.62-5.73v-7.72h1.8v7.55c0,2.83,1.47,4.29,4,4.29,2.79,0,4.54-1.8,4.54-4.84v-6.99h1.8-.02Z"/>
      <path class="st2" d="M245.75,469.06v1.74c-.16,0-.3-.03-.43-.03-2.79,0-4.48,1.77-4.48,4.92v6.79h-1.8v-13.32h1.72v2.61c.84-1.77,2.53-2.71,4.98-2.71Z"/>
      <path class="st2" d="M247.24,480.97l.81-1.42c1.06.84,2.86,1.49,4.73,1.49,2.53,0,3.58-.85,3.58-2.18,0-3.47-8.64-.73-8.64-6,0-2.18,1.87-3.8,5.27-3.8,1.72,0,3.59.47,4.72,1.23l-.79,1.44c-1.17-.81-2.56-1.14-3.92-1.14-2.41,0-3.47.93-3.47,2.2,0,3.59,8.64.89,8.64,6,0,2.31-2.03,3.8-5.49,3.8-2.2,0-4.34-.71-5.43-1.65,0,0,0,.03,0,.03Z"/>
      <path class="st2" d="M204.34,501.15v17.72h-1.8v-14.18l-6.96,11.93h-.89l-6.96-11.85v14.12h-1.8v-17.72h1.55l7.71,13.15,7.63-13.15h1.55-.02v-.02Z"/>
      <path class="st2" d="M208.37,512.23c0-3.96,2.88-6.76,6.79-6.76s6.76,2.82,6.76,6.76-2.86,6.79-6.76,6.79-6.79-2.83-6.79-6.79ZM220.11,512.23c0-3.12-2.1-5.19-4.94-5.19s-4.97,2.07-4.97,5.19,2.12,5.19,4.97,5.19,4.94-2.07,4.94-5.19Z"/>
      <path class="st2" d="M237.85,511.15v7.72h-1.8v-7.55c0-2.82-1.47-4.26-4-4.26-2.86,0-4.67,1.77-4.67,4.81v6.99h-1.8v-13.32h1.72v2.45c.97-1.61,2.77-2.56,5.06-2.56,3.24,0,5.48,1.87,5.48,5.7h.02v.02Z"/>
      <path class="st2" d="M240.23,511.36h12.66v1.3h-12.66v-1.3Z"/>
      <path class="st2" d="M257.65,502.78v6.96h9.16v1.61h-9.16v7.52h-1.87v-17.72h12.15v1.61h-10.29v.02Z"/>
      <path class="st2" d="M277.89,505.45v1.74c-.16,0-.3-.03-.43-.03-2.79,0-4.48,1.77-4.48,4.91v6.79h-1.8v-13.32h1.72v2.61c.84-1.77,2.53-2.71,4.98-2.71h0v.02Z"/>
      <path class="st2" d="M280.72,501.36c0-.68.59-1.27,1.31-1.27s1.31.55,1.31,1.23c0,.73-.55,1.31-1.31,1.31s-1.31-.59-1.31-1.3h0v.02ZM281.12,505.56h1.8v13.32h-1.8v-13.32Z"/>
      <path class="st2" d="M286.77,506.83c0-.79.6-1.36,1.35-1.36s1.36.59,1.36,1.36-.63,1.39-1.36,1.39-1.35-.6-1.35-1.39ZM286.77,517.62c0-.79.6-1.36,1.35-1.36s1.36.59,1.36,1.36-.63,1.39-1.36,1.39-1.35-.6-1.35-1.39Z"/>
      <path class="st2" d="M303.65,501.15v17.72h-1.82v-16.11h-4.18v-1.61h6Z"/>
      <path class="st2" d="M307.88,510.01c0-5.65,2.96-9.02,7.07-9.02s7.09,3.37,7.09,9.02-2.99,9.02-7.09,9.02-7.07-3.37-7.07-9.02ZM320.17,510.01c0-4.73-2.12-7.34-5.22-7.34s-5.22,2.61-5.22,7.34,2.12,7.34,5.22,7.34,5.22-2.61,5.22-7.34Z"/>
      <path class="st2" d="M335.89,510.63v8.26h-1.72v-2.07c-.81,1.36-2.37,2.2-4.59,2.2-3.01,0-4.86-1.57-4.86-3.88,0-2.06,1.31-3.77,5.14-3.77h4.23v-.81c0-2.28-1.3-3.51-3.77-3.51-1.72,0-3.34.6-4.43,1.57l-.81-1.35c1.35-1.14,3.32-1.8,5.43-1.8,3.45,0,5.4,1.72,5.4,5.17h0l-.02-.02ZM334.1,514.89v-2.18h-4.18c-2.58,0-3.42,1.01-3.42,2.37,0,1.55,1.23,2.5,3.37,2.5s3.51-.97,4.23-2.71h0v.02Z"/>
      <path class="st2" d="M362.76,511.15v7.72h-1.8v-7.55c0-2.82-1.42-4.26-3.83-4.26-2.74,0-4.46,1.77-4.46,4.81v6.99h-1.8v-7.55c0-2.82-1.42-4.26-3.85-4.26-2.71,0-4.46,1.77-4.46,4.81v6.99h-1.8v-13.32h1.72v2.44c.93-1.6,2.66-2.53,4.89-2.53s3.92.93,4.73,2.82c.97-1.72,2.86-2.82,5.27-2.82,3.24,0,5.36,1.87,5.36,5.7h.03Z"/>
      <path class="st2" d="M365.13,511.36h12.66v1.3h-12.66v-1.3Z"/>
      <path class="st2" d="M391.62,501.15v1.3l-7.42,16.44h-1.98l7.3-16.11h-9.12v3.32h-1.8v-4.94h13.02v-.02Z"/>
      <path class="st2" d="M408.05,512.23c0,4.05-2.83,6.79-6.63,6.79-2.12,0-3.96-.92-5.06-2.64v7.42h-1.8v-18.23h1.72v2.63c1.09-1.77,2.94-2.74,5.14-2.74,3.8,0,6.63,2.74,6.63,6.76h0v.02ZM406.26,512.23c0-3.09-2.15-5.19-4.97-5.19s-4.97,2.1-4.97,5.19,2.12,5.19,4.97,5.19,4.97-2.07,4.97-5.19Z"/>
      <path class="st2" d="M433.7,511.15v7.72h-1.8v-7.55c0-2.82-1.42-4.26-3.83-4.26-2.74,0-4.46,1.77-4.46,4.81v6.99h-1.8v-7.55c0-2.82-1.42-4.26-3.85-4.26-2.71,0-4.46,1.77-4.46,4.81v6.99h-1.8v-13.32h1.72v2.44c.93-1.6,2.66-2.53,4.89-2.53s3.92.93,4.73,2.82c.97-1.72,2.86-2.82,5.27-2.82,3.24,0,5.36,1.87,5.36,5.7h.03Z"/>
      <path class="st2" d="M184.22,553.13l.73-1.44c1.27,1.23,3.51,2.15,5.86,2.15,3.32,0,4.76-1.39,4.76-3.15,0-4.86-10.92-1.87-10.92-8.43,0-2.61,2.03-4.86,6.54-4.86,1.99,0,4.08.59,5.49,1.57l-.63,1.49c-1.52-.98-3.29-1.47-4.86-1.47-3.24,0-4.68,1.44-4.68,3.21,0,4.86,10.92,1.93,10.92,8.39,0,2.61-2.07,4.84-6.61,4.84-2.66,0-5.27-.93-6.58-2.31h0v.02Z"/>
      <path class="st2" d="M211.17,547.03v8.26h-1.72v-2.07c-.81,1.36-2.37,2.2-4.59,2.2-3.01,0-4.86-1.57-4.86-3.88,0-2.06,1.31-3.77,5.14-3.77h4.23v-.81c0-2.28-1.3-3.51-3.77-3.51-1.72,0-3.34.6-4.43,1.57l-.81-1.35c1.35-1.14,3.32-1.8,5.43-1.8,3.45,0,5.4,1.72,5.4,5.17h-.02v-.02ZM209.37,551.28v-2.18h-4.18c-2.58,0-3.42,1.01-3.42,2.37,0,1.55,1.23,2.5,3.37,2.5s3.51-.97,4.23-2.71h0v.02Z"/>
      <path class="st2" d="M223.07,554.46c-.71.63-1.77.93-2.82.93-2.5,0-3.91-1.42-3.91-3.88v-8.05h-2.37v-1.52h2.37v-2.91h1.8v2.91h4.05v1.52h-4.05v7.96c0,1.57.81,2.44,2.31,2.44.73,0,1.47-.22,1.98-.68l.63,1.3h0v-.02Z"/>
      <path class="st2" d="M223.82,547.75h12.66v1.3h-12.66v-1.3Z"/>
      <path class="st2" d="M237.68,553.13l.73-1.44c1.27,1.23,3.51,2.15,5.86,2.15,3.32,0,4.76-1.39,4.76-3.15,0-4.86-10.92-1.87-10.92-8.43,0-2.61,2.03-4.86,6.54-4.86,1.99,0,4.08.59,5.49,1.57l-.63,1.49c-1.52-.98-3.29-1.47-4.86-1.47-3.24,0-4.68,1.44-4.68,3.21,0,4.86,10.92,1.93,10.92,8.39,0,2.61-2.07,4.84-6.61,4.84-2.66,0-5.27-.93-6.58-2.31h0v.02Z"/>
      <path class="st2" d="M266.58,541.96v13.32h-1.72v-2.44c-.93,1.63-2.66,2.56-4.79,2.56-3.39,0-5.62-1.9-5.62-5.73v-7.72h1.8v7.55c0,2.83,1.47,4.29,4,4.29,2.79,0,4.54-1.8,4.54-4.84v-6.99h1.8-.02Z"/>
      <path class="st2" d="M283.86,547.55v7.72h-1.8v-7.55c0-2.82-1.47-4.26-4-4.26-2.86,0-4.67,1.77-4.67,4.81v6.99h-1.8v-13.32h1.72v2.45c.97-1.61,2.77-2.56,5.06-2.56,3.24,0,5.48,1.87,5.48,5.7h0l.02.02Z"/>
      <path class="st2" d="M287.58,543.23c0-.79.6-1.36,1.35-1.36s1.36.59,1.36,1.36-.63,1.39-1.36,1.39-1.35-.6-1.35-1.39ZM287.58,554.02c0-.79.6-1.36,1.35-1.36s1.36.59,1.36,1.36-.63,1.39-1.36,1.39-1.35-.6-1.35-1.39Z"/>
      <path class="st2" d="M304.48,537.55v17.72h-1.82v-16.11h-4.18v-1.61h6Z"/>
      <path class="st2" d="M308.7,546.41c0-5.65,2.96-9.02,7.07-9.02s7.09,3.37,7.09,9.02-2.99,9.02-7.09,9.02-7.07-3.37-7.07-9.02ZM320.98,546.41c0-4.73-2.12-7.34-5.22-7.34s-5.22,2.61-5.22,7.34,2.12,7.34,5.22,7.34,5.22-2.61,5.22-7.34Z"/>
      <path class="st2" d="M336.7,547.03v8.26h-1.72v-2.07c-.81,1.36-2.37,2.2-4.59,2.2-3.01,0-4.86-1.57-4.86-3.88,0-2.06,1.31-3.77,5.14-3.77h4.23v-.81c0-2.28-1.3-3.51-3.77-3.51-1.72,0-3.34.6-4.43,1.57l-.81-1.35c1.35-1.14,3.32-1.8,5.43-1.8,3.45,0,5.4,1.72,5.4,5.17h0l-.02-.02ZM334.91,551.28v-2.18h-4.18c-2.58,0-3.42,1.01-3.42,2.37,0,1.55,1.23,2.5,3.37,2.5s3.51-.97,4.23-2.71h0v.02Z"/>
      <path class="st2" d="M363.57,547.55v7.72h-1.8v-7.55c0-2.82-1.42-4.26-3.83-4.26-2.74,0-4.46,1.77-4.46,4.81v6.99h-1.8v-7.55c0-2.82-1.42-4.26-3.85-4.26-2.71,0-4.46,1.77-4.46,4.81v6.99h-1.8v-13.32h1.72v2.44c.93-1.6,2.66-2.53,4.89-2.53s3.92.93,4.73,2.82c.97-1.72,2.86-2.82,5.27-2.82,3.24,0,5.36,1.87,5.36,5.7h.03Z"/>
      <path class="st2" d="M365.94,547.75h12.66v1.3h-12.66v-1.3Z"/>
      <path class="st2" d="M393.24,549.98c0,3.32-2.61,5.44-6.06,5.44-4.72,0-7.26-3.26-7.26-8.86,0-6.03,3.29-9.16,8.1-9.16,1.6,0,3.09.28,4.21.97l-.73,1.47c-.92-.6-2.12-.84-3.45-.84-3.83,0-6.28,2.45-6.28,7.26,0,.41.03.92.08,1.44.89-1.95,2.96-3.04,5.43-3.04,3.51,0,5.98,2.07,5.98,5.32h-.02ZM391.45,550.03c0-2.33-1.72-3.83-4.46-3.83s-4.56,1.68-4.56,3.88c0,1.95,1.61,3.8,4.68,3.8,2.56,0,4.34-1.5,4.34-3.85Z"/>
      <path class="st2" d="M410.03,548.62c0,4.05-2.83,6.79-6.63,6.79-2.12,0-3.96-.92-5.06-2.64v7.42h-1.8v-18.23h1.72v2.63c1.09-1.77,2.94-2.74,5.14-2.74,3.8,0,6.63,2.74,6.63,6.76h0v.02ZM408.22,548.62c0-3.09-2.15-5.19-4.97-5.19s-4.97,2.1-4.97,5.19,2.12,5.19,4.97,5.19,4.97-2.07,4.97-5.19Z"/>
      <path class="st2" d="M435.68,547.55v7.72h-1.8v-7.55c0-2.82-1.42-4.26-3.83-4.26-2.74,0-4.46,1.77-4.46,4.81v6.99h-1.8v-7.55c0-2.82-1.42-4.26-3.85-4.26-2.71,0-4.46,1.77-4.46,4.81v6.99h-1.8v-13.32h1.72v2.44c.93-1.6,2.66-2.53,4.89-2.53s3.92.93,4.73,2.82c.97-1.72,2.86-2.82,5.27-2.82,3.24,0,5.36,1.87,5.36,5.7h.03Z"/>
    </g>
    <g>
      <path class="st2" d="M549.94,477.4c0,2.96-2.15,5.24-6.44,5.24-2.56,0-5.02-.89-6.38-2.28l.89-1.44c1.14,1.19,3.2,2.06,5.49,2.06,2.94,0,4.56-1.36,4.56-3.58s-1.49-3.53-4.79-3.53h-1.27v-1.35l4.92-6.16h-9.07v-1.61h11.39v1.3l-5.02,6.31c3.8.21,5.7,2.2,5.7,5.05h.02v-.02Z"/>
      <path class="st2" d="M564.48,480.86v1.61h-12.44v-1.3l7.37-7.22c1.99-1.98,2.37-3.16,2.37-4.38,0-2.06-1.44-3.32-4.15-3.32-2.07,0-3.67.63-4.84,1.98l-1.3-1.11c1.36-1.61,3.58-2.53,6.28-2.53,3.59,0,5.87,1.82,5.87,4.79,0,1.69-.54,3.21-2.91,5.55l-6.03,5.93h9.76v-.02Z"/>
      <path class="st2" d="M578.86,480.86v1.61h-12.44v-1.3l7.37-7.22c1.99-1.98,2.37-3.16,2.37-4.38,0-2.06-1.44-3.32-4.15-3.32-2.07,0-3.67.63-4.84,1.98l-1.3-1.11c1.36-1.61,3.58-2.53,6.28-2.53,3.59,0,5.87,1.82,5.87,4.79,0,1.69-.54,3.21-2.91,5.55l-6.03,5.93h9.76v-.02Z"/>
      <path class="st2" d="M593.17,477.27c0,3.01-2.1,5.36-6.44,5.36-2.56,0-4.98-.89-6.36-2.28l.89-1.44c1.14,1.19,3.16,2.06,5.44,2.06,3.02,0,4.61-1.47,4.61-3.62,0-2.28-1.42-3.7-5.93-3.7h-3.77l.92-8.89h9.7v1.61h-8.1l-.6,5.65h2.28c5.35,0,7.37,2.1,7.37,5.24h0v.02Z"/>
      <path class="st2" d="M601.97,480.34l.73-1.44c1.27,1.23,3.51,2.15,5.86,2.15,3.32,0,4.76-1.39,4.76-3.13,0-4.86-10.92-1.87-10.92-8.43,0-2.61,2.03-4.86,6.54-4.86,1.99,0,4.08.59,5.49,1.57l-.63,1.49c-1.52-.98-3.29-1.47-4.86-1.47-3.24,0-4.68,1.44-4.68,3.21,0,4.86,10.92,1.93,10.92,8.39,0,2.61-2.07,4.84-6.61,4.84-2.66,0-5.27-.93-6.58-2.31h0Z"/>
      <path class="st2" d="M632.35,475.83c0,4.05-2.83,6.79-6.63,6.79-2.12,0-3.96-.92-5.06-2.63v7.42h-1.8v-18.23h1.72v2.63c1.09-1.77,2.94-2.74,5.14-2.74,3.8,0,6.63,2.74,6.63,6.76h0ZM630.56,475.83c0-3.09-2.15-5.19-4.97-5.19s-4.97,2.1-4.97,5.19,2.12,5.19,4.97,5.19,4.97-2.07,4.97-5.19Z"/>
      <path class="st2" d="M634.68,475.83c0-3.96,2.9-6.76,6.79-6.76s6.76,2.82,6.76,6.76-2.86,6.79-6.76,6.79-6.79-2.83-6.79-6.79ZM646.4,475.83c0-3.12-2.1-5.19-4.94-5.19s-4.97,2.07-4.97,5.19,2.12,5.19,4.97,5.19,4.94-2.07,4.94-5.19Z"/>
      <path class="st2" d="M658.6,469.06v1.74c-.16,0-.3-.03-.43-.03-2.79,0-4.48,1.77-4.48,4.92v6.79h-1.8v-13.32h1.72v2.61c.84-1.77,2.53-2.71,4.98-2.71Z"/>
      <path class="st2" d="M669.44,481.67c-.71.63-1.77.93-2.82.93-2.5,0-3.91-1.42-3.91-3.88v-8.05h-2.37v-1.52h2.37v-2.91h1.8v2.91h4.05v1.52h-4.05v7.96c0,1.57.81,2.44,2.31,2.44.73,0,1.47-.22,1.98-.68l.63,1.3h0v-.02Z"/>
      <path class="st2" d="M690.84,477.74h-9.87l-2.12,4.73h-1.95l8.1-17.72h1.85l8.1,17.72h-1.98l-2.12-4.73h-.02ZM690.16,476.23l-4.26-9.53-4.26,9.53h8.51Z"/>
      <path class="st2" d="M704.21,469.06v1.74c-.16,0-.3-.03-.43-.03-2.79,0-4.48,1.77-4.48,4.92v6.79h-1.8v-13.32h1.72v2.61c.84-1.77,2.53-2.71,4.98-2.71Z"/>
      <path class="st2" d="M719.23,469.17l-5.93,13.32h-1.85l-5.9-13.32h1.87l4.98,11.35,5.05-11.35h1.79Z"/>
      <path class="st2" d="M732.98,476.38h-11.14c.21,2.79,2.33,4.64,5.24,4.64,1.61,0,3.07-.59,4.08-1.74l1.01,1.17c-1.19,1.42-3.04,2.18-5.14,2.18-4.15,0-6.99-2.83-6.99-6.79s2.77-6.76,6.5-6.76,6.46,2.75,6.46,6.76c0,.16-.03.35-.03.55h.02v-.02ZM721.82,475.04h9.45c-.22-2.61-2.12-4.43-4.73-4.43s-4.48,1.82-4.72,4.43Z"/>
      <path class="st2" d="M748.93,474.75v7.72h-1.8v-7.55c0-2.82-1.47-4.26-4-4.26-2.86,0-4.67,1.77-4.67,4.81v6.99h-1.8v-13.32h1.72v2.45c.97-1.61,2.77-2.56,5.06-2.56,3.24,0,5.48,1.87,5.48,5.7h.02v.02Z"/>
      <path class="st2" d="M763.87,474.23v8.26h-1.72v-2.07c-.81,1.36-2.37,2.2-4.59,2.2-3.01,0-4.86-1.57-4.86-3.88,0-2.06,1.31-3.77,5.14-3.77h4.23v-.81c0-2.28-1.3-3.53-3.77-3.53-1.72,0-3.34.6-4.43,1.57l-.81-1.35c1.35-1.14,3.32-1.8,5.43-1.8,3.45,0,5.4,1.72,5.4,5.17h-.02ZM762.07,478.49v-2.18h-4.18c-2.58,0-3.42,1.01-3.42,2.37,0,1.55,1.23,2.5,3.37,2.5s3.51-.97,4.23-2.71h0v.02Z"/>
      <path class="st2" d="M790.58,477.74c0,3.01-2.23,4.73-6.66,4.73h-8.15v-17.72h7.64c3.96,0,6.23,1.68,6.23,4.56,0,2.03-1.09,3.37-2.71,4.02,2.28.51,3.64,1.99,3.64,4.42ZM777.64,466.3v6.44h5.65c2.83,0,4.48-1.09,4.48-3.21s-1.65-3.21-4.48-3.21h-5.65v-.02ZM788.7,477.6c0-2.31-1.69-3.32-4.81-3.32h-6.25v6.66h6.25c3.12,0,4.81-1.01,4.81-3.34Z"/>
      <path class="st2" d="M793.13,475.83c0-3.96,2.88-6.76,6.79-6.76s6.76,2.82,6.76,6.76-2.86,6.79-6.76,6.79-6.79-2.83-6.79-6.79ZM804.86,475.83c0-3.12-2.1-5.19-4.94-5.19s-4.97,2.07-4.97,5.19,2.12,5.19,4.97,5.19,4.94-2.07,4.94-5.19Z"/>
      <path class="st2" d="M822.36,469.17v13.32h-1.72v-2.44c-.93,1.61-2.66,2.56-4.79,2.56-3.39,0-5.62-1.9-5.62-5.73v-7.72h1.8v7.55c0,2.83,1.47,4.29,4,4.29,2.79,0,4.54-1.8,4.54-4.84v-6.99h1.8-.02Z"/>
      <path class="st2" d="M827.39,463.69h1.8v18.8h-1.8v-18.8h0Z"/>
      <path class="st2" d="M845.8,476.38h-11.14c.21,2.79,2.33,4.64,5.24,4.64,1.61,0,3.07-.59,4.08-1.74l1.01,1.17c-1.19,1.42-3.04,2.18-5.14,2.18-4.15,0-6.99-2.83-6.99-6.79s2.77-6.76,6.5-6.76,6.46,2.75,6.46,6.76c0,.16-.03.35-.03.55h.02v-.02ZM834.66,475.04h9.45c-.22-2.61-2.12-4.43-4.73-4.43s-4.48,1.82-4.72,4.43Z"/>
      <path class="st2" d="M863,475.83c0,4.02-2.83,6.79-6.63,6.79-2.2,0-4.05-.97-5.14-2.75v2.63h-1.72v-18.8h1.8v8.01c1.12-1.72,2.94-2.63,5.06-2.63,3.8,0,6.63,2.74,6.63,6.76h0ZM861.19,475.83c0-3.12-2.15-5.19-4.97-5.19s-4.97,2.07-4.97,5.19,2.12,5.19,4.97,5.19,4.97-2.07,4.97-5.19Z"/>
      <path class="st2" d="M876.64,474.23v8.26h-1.72v-2.07c-.81,1.36-2.37,2.2-4.59,2.2-3.01,0-4.86-1.57-4.86-3.88,0-2.06,1.31-3.77,5.14-3.77h4.23v-.81c0-2.28-1.3-3.53-3.77-3.53-1.72,0-3.34.6-4.43,1.57l-.81-1.35c1.35-1.14,3.32-1.8,5.43-1.8,3.45,0,5.4,1.72,5.4,5.17h-.02ZM874.84,478.49v-2.18h-4.18c-2.58,0-3.42,1.01-3.42,2.37,0,1.55,1.23,2.5,3.37,2.5s3.51-.97,4.23-2.71h0v.02Z"/>
      <path class="st2" d="M888.24,469.06v1.74c-.16,0-.3-.03-.43-.03-2.79,0-4.48,1.77-4.48,4.92v6.79h-1.8v-13.32h1.72v2.61c.84-1.77,2.53-2.71,4.98-2.71Z"/>
      <path class="st2" d="M903.49,463.69v18.8h-1.72v-2.63c-1.09,1.8-2.94,2.75-5.14,2.75-3.8,0-6.63-2.75-6.63-6.79s2.83-6.76,6.63-6.76c2.12,0,3.96.92,5.06,2.63v-8.01h1.8ZM901.72,475.83c0-3.12-2.12-5.19-4.94-5.19s-4.97,2.07-4.97,5.19,2.12,5.19,4.97,5.19,4.94-2.07,4.94-5.19Z"/>
      <path class="st2" d="M538.08,516.74l.73-1.44c1.27,1.23,3.51,2.15,5.86,2.15,3.32,0,4.76-1.39,4.76-3.15,0-4.86-10.92-1.87-10.92-8.43,0-2.61,2.03-4.86,6.54-4.86,1.99,0,4.08.59,5.49,1.57l-.63,1.49c-1.52-.98-3.29-1.47-4.86-1.47-3.24,0-4.68,1.44-4.68,3.21,0,4.86,10.92,1.93,10.92,8.39,0,2.61-2.07,4.84-6.61,4.84-2.66,0-5.27-.93-6.58-2.31h0v.02Z"/>
      <path class="st2" d="M566.98,505.56v13.32h-1.72v-2.44c-.93,1.63-2.66,2.56-4.79,2.56-3.39,0-5.62-1.9-5.62-5.73v-7.72h1.8v7.55c0,2.83,1.47,4.29,4,4.29,2.79,0,4.54-1.8,4.54-4.84v-6.99h1.8-.02Z"/>
      <path class="st2" d="M571.62,501.36c0-.68.59-1.27,1.31-1.27s1.31.55,1.31,1.23c0,.73-.55,1.31-1.31,1.31s-1.31-.59-1.31-1.3h0v.02ZM572.01,505.56h1.8v13.32h-1.8v-13.32Z"/>
      <path class="st2" d="M585.84,518.07c-.71.63-1.77.93-2.82.93-2.5,0-3.91-1.42-3.91-3.88v-8.05h-2.37v-1.52h2.37v-2.91h1.8v2.91h4.05v1.52h-4.05v7.96c0,1.57.81,2.44,2.31,2.44.73,0,1.47-.22,1.98-.68l.63,1.3h0v-.02Z"/>
      <path class="st2" d="M600.23,512.78h-11.14c.21,2.79,2.33,4.64,5.24,4.64,1.61,0,3.07-.59,4.08-1.74l1.01,1.17c-1.19,1.42-3.04,2.18-5.14,2.18-4.15,0-6.99-2.83-6.99-6.79s2.77-6.76,6.5-6.76,6.46,2.77,6.46,6.76c0,.16-.03.35-.03.55h.02v-.02ZM589.09,511.44h9.45c-.22-2.61-2.12-4.43-4.73-4.43s-4.48,1.82-4.72,4.43Z"/>
      <path class="st2" d="M614.28,501.15v17.72h-1.82v-16.11h-4.18v-1.61h6Z"/>
      <path class="st2" d="M618.5,510.01c0-5.65,2.96-9.02,7.07-9.02s7.09,3.37,7.09,9.02-2.99,9.02-7.09,9.02-7.07-3.37-7.07-9.02ZM630.78,510.01c0-4.73-2.12-7.34-5.22-7.34s-5.22,2.61-5.22,7.34,2.12,7.34,5.22,7.34,5.22-2.61,5.22-7.34Z"/>
      <path class="st2" d="M650.33,514.22h-3.54v4.67h-1.82v-4.67h-10v-1.31l9.4-11.76h2.03l-9.07,11.44h7.71v-4.1h1.77v4.1h3.54v1.61h0l-.02.02Z"/>
      <path class="st2" d="M538.08,553.13l.73-1.44c1.27,1.23,3.51,2.15,5.86,2.15,3.32,0,4.76-1.39,4.76-3.15,0-4.86-10.92-1.87-10.92-8.43,0-2.61,2.03-4.86,6.54-4.86,1.99,0,4.08.59,5.49,1.57l-.63,1.49c-1.52-.98-3.29-1.47-4.86-1.47-3.24,0-4.68,1.44-4.68,3.21,0,4.86,10.92,1.93,10.92,8.39,0,2.61-2.07,4.84-6.61,4.84-2.66,0-5.27-.93-6.58-2.31h0v.02Z"/>
      <path class="st2" d="M565.03,547.03v8.26h-1.72v-2.07c-.81,1.36-2.37,2.2-4.59,2.2-3.01,0-4.86-1.57-4.86-3.88,0-2.06,1.31-3.77,5.14-3.77h4.23v-.81c0-2.28-1.3-3.51-3.77-3.51-1.72,0-3.34.6-4.43,1.57l-.81-1.35c1.35-1.14,3.32-1.8,5.43-1.8,3.45,0,5.4,1.72,5.4,5.17h-.02v-.02ZM563.23,551.28v-2.18h-4.18c-2.58,0-3.42,1.01-3.42,2.37,0,1.55,1.23,2.5,3.37,2.5s3.51-.97,4.23-2.71h0v.02Z"/>
      <path class="st2" d="M582.17,547.55v7.72h-1.8v-7.55c0-2.82-1.47-4.26-4-4.26-2.86,0-4.67,1.77-4.67,4.81v6.99h-1.8v-13.32h1.72v2.45c.97-1.61,2.77-2.56,5.06-2.56,3.24,0,5.48,1.87,5.48,5.7h.02v.02Z"/>
      <path class="st2" d="M594.07,537.55h7.22c5.67,0,9.49,3.64,9.49,8.86s-3.83,8.86-9.49,8.86h-7.22v-17.72ZM601.19,553.66c4.72,0,7.75-2.99,7.75-7.25s-3.04-7.25-7.75-7.25h-5.24v14.5h5.24Z"/>
      <path class="st2" d="M614.2,537.75c0-.68.59-1.27,1.31-1.27s1.31.55,1.31,1.23c0,.73-.55,1.31-1.31,1.31s-1.31-.59-1.31-1.3h0v.02ZM614.6,541.96h1.8v13.32h-1.8v-13.32Z"/>
      <path class="st2" d="M633.02,549.18h-11.14c.21,2.79,2.33,4.64,5.24,4.64,1.61,0,3.07-.59,4.08-1.74l1.01,1.17c-1.19,1.42-3.04,2.18-5.14,2.18-4.15,0-6.99-2.83-6.99-6.79s2.77-6.76,6.5-6.76,6.46,2.77,6.46,6.76c0,.16-.03.35-.03.55h.02v-.02ZM621.88,547.83h9.45c-.22-2.61-2.12-4.43-4.73-4.43s-4.48,1.82-4.72,4.43Z"/>
      <path class="st2" d="M649.05,541.96v11.69c0,4.59-2.25,6.66-6.66,6.66-2.44,0-4.81-.73-6.2-2.06l.92-1.36c1.27,1.14,3.2,1.82,5.24,1.82,3.37,0,4.92-1.55,4.92-4.84v-1.69c-1.11,1.69-3.01,2.58-5.19,2.58-3.8,0-6.69-2.66-6.69-6.49s2.9-6.44,6.69-6.44c2.23,0,4.15.92,5.27,2.66v-2.56h1.72v.03h-.02ZM647.29,548.29c0-2.88-2.12-4.86-5.06-4.86s-5.05,1.98-5.05,4.86,2.1,4.89,5.05,4.89,5.06-1.99,5.06-4.89Z"/>
      <path class="st2" d="M652.73,548.62c0-3.96,2.88-6.76,6.79-6.76s6.76,2.82,6.76,6.76-2.86,6.79-6.76,6.79-6.79-2.83-6.79-6.79ZM664.46,548.62c0-3.12-2.1-5.19-4.94-5.19s-4.97,2.07-4.97,5.19,2.12,5.19,4.97,5.19,4.94-2.07,4.94-5.19Z"/>
      <path class="st2" d="M671.12,554.02c0,.43-.09.76-.35,1.47l-1.06,3.5h-1.22l.85-3.67c-.54-.16-.92-.63-.92-1.3,0-.79.59-1.36,1.35-1.36s1.35.6,1.35,1.36h0Z"/>
      <path class="st2" d="M680.38,546.41c0-5.19,3.96-9.02,9.31-9.02,2.58,0,4.91.85,6.49,2.58l-1.19,1.19c-1.44-1.47-3.21-2.1-5.24-2.1-4.29,0-7.5,3.13-7.5,7.34s3.21,7.34,7.5,7.34c2.03,0,3.8-.63,5.24-2.12l1.19,1.19c-1.57,1.72-3.89,2.61-6.5,2.61-5.32,0-9.27-3.83-9.27-9.02h-.02v.02Z"/>
      <path class="st2" d="M709.62,547.03v8.26h-1.72v-2.07c-.81,1.36-2.37,2.2-4.59,2.2-3.01,0-4.86-1.57-4.86-3.88,0-2.06,1.31-3.77,5.14-3.77h4.23v-.81c0-2.28-1.3-3.51-3.77-3.51-1.72,0-3.34.6-4.43,1.57l-.81-1.35c1.35-1.14,3.32-1.8,5.43-1.8,3.45,0,5.4,1.72,5.4,5.17h-.02v-.02ZM707.84,551.28v-2.18h-4.18c-2.58,0-3.42,1.01-3.42,2.37,0,1.55,1.23,2.5,3.37,2.5s3.51-.97,4.23-2.71h0v.02Z"/>
      <path class="st2" d="M732.74,546.27c0,6.03-3.29,9.16-8.1,9.16-1.6,0-3.09-.28-4.21-.97l.73-1.47c.92.6,2.12.84,3.45.84,3.83,0,6.28-2.45,6.28-7.26,0-.41-.03-.92-.08-1.44-.89,1.95-2.96,3.04-5.43,3.04-3.51,0-5.98-2.07-5.98-5.32s2.61-5.44,6.06-5.44c4.72,0,7.26,3.28,7.26,8.86h.02ZM730.24,542.74c0-1.95-1.61-3.8-4.68-3.8-2.56,0-4.34,1.49-4.34,3.85s1.72,3.83,4.46,3.83,4.56-1.68,4.56-3.88h0Z"/>
      <path class="st2" d="M747.43,553.66v1.61h-12.44v-1.3l7.37-7.22c1.99-1.98,2.37-3.16,2.37-4.38,0-2.06-1.44-3.32-4.15-3.32-2.07,0-3.67.63-4.84,1.98l-1.3-1.11c1.36-1.61,3.58-2.53,6.28-2.53,3.59,0,5.87,1.82,5.87,4.79,0,1.69-.54,3.21-2.91,5.55l-6.03,5.93h9.76v-.02Z"/>
      <path class="st2" d="M754.61,537.55v17.72h-1.82v-16.11h-4.18v-1.61h6Z"/>
      <path class="st2" d="M763.76,537.55v17.72h-1.82v-16.11h-4.18v-1.61h6Z"/>
      <path class="st2" d="M767.99,546.41c0-5.65,2.96-9.02,7.07-9.02s7.09,3.37,7.09,9.02-2.99,9.02-7.09,9.02-7.07-3.37-7.07-9.02ZM780.27,546.41c0-4.73-2.12-7.34-5.22-7.34s-5.22,2.61-5.22,7.34,2.12,7.34,5.22,7.34,5.22-2.61,5.22-7.34Z"/>
    </g>
    <g>
      <path class="st2" d="M970.75,473.61c0-5.19,3.96-9.02,9.31-9.02,2.58,0,4.91.85,6.49,2.58l-1.19,1.19c-1.44-1.47-3.21-2.1-5.24-2.1-4.29,0-7.5,3.13-7.5,7.34s3.21,7.34,7.5,7.34c2.03,0,3.8-.63,5.24-2.12l1.19,1.19c-1.57,1.72-3.89,2.61-6.5,2.61-5.32,0-9.27-3.83-9.27-9.02h-.02v.02Z"/>
      <path class="st2" d="M988.22,475.83c0-3.96,2.9-6.76,6.79-6.76s6.76,2.82,6.76,6.76-2.86,6.79-6.76,6.79-6.79-2.83-6.79-6.79ZM999.95,475.83c0-3.12-2.1-5.19-4.94-5.19s-4.97,2.07-4.97,5.19,2.12,5.19,4.97,5.19,4.94-2.07,4.94-5.19Z"/>
      <path class="st2" d="M1017.69,474.75v7.72h-1.8v-7.55c0-2.82-1.47-4.26-4-4.26-2.86,0-4.67,1.77-4.67,4.81v6.99h-1.8v-13.32h1.72v2.45c.97-1.61,2.77-2.56,5.06-2.56,3.24,0,5.48,1.87,5.48,5.7h.02v.02Z"/>
      <path class="st2" d="M1029.59,481.67c-.71.63-1.77.93-2.82.93-2.5,0-3.91-1.42-3.91-3.88v-8.05h-2.37v-1.52h2.37v-2.91h1.8v2.91h4.05v1.52h-4.05v7.96c0,1.57.81,2.44,2.31,2.44.73,0,1.47-.22,1.98-.68l.63,1.3h0v-.02Z"/>
      <path class="st2" d="M1042.91,474.23v8.26h-1.72v-2.07c-.81,1.36-2.37,2.2-4.59,2.2-3.01,0-4.86-1.57-4.86-3.88,0-2.06,1.31-3.77,5.14-3.77h4.23v-.81c0-2.28-1.3-3.53-3.77-3.53-1.72,0-3.34.6-4.43,1.57l-.81-1.35c1.35-1.14,3.32-1.8,5.43-1.8,3.45,0,5.4,1.72,5.4,5.17h-.02ZM1041.11,478.49v-2.18h-4.18c-2.58,0-3.42,1.01-3.42,2.37,0,1.55,1.23,2.5,3.37,2.5s3.51-.97,4.23-2.71h0v.02Z"/>
      <path class="st2" d="M1046.5,475.83c0-3.97,2.9-6.76,6.87-6.76,2.25,0,4.15.89,5.22,2.63l-1.35.92c-.92-1.35-2.33-1.98-3.88-1.98-2.91,0-5.05,2.07-5.05,5.19s2.12,5.19,5.05,5.19c1.55,0,2.96-.6,3.88-1.95l1.35.92c-1.06,1.72-2.96,2.63-5.22,2.63-3.97,0-6.87-2.82-6.87-6.79h0Z"/>
      <path class="st2" d="M1069.26,481.67c-.71.63-1.77.93-2.82.93-2.5,0-3.91-1.42-3.91-3.88v-8.05h-2.37v-1.52h2.37v-2.91h1.8v2.91h4.05v1.52h-4.05v7.96c0,1.57.81,2.44,2.31,2.44.73,0,1.47-.22,1.98-.68l.63,1.3h0v-.02Z"/>
      <path class="st2" d="M984.2,511.15v7.72h-1.8v-7.55c0-2.82-1.47-4.26-4-4.26-2.86,0-4.67,1.77-4.67,4.81v6.99h-1.8v-18.8h1.8v7.8c.98-1.55,2.74-2.44,4.98-2.44,3.24,0,5.48,1.87,5.48,5.7h.02v.02Z"/>
      <path class="st2" d="M1000.72,512.78h-11.14c.21,2.79,2.33,4.64,5.24,4.64,1.61,0,3.07-.59,4.08-1.74l1.01,1.17c-1.19,1.42-3.04,2.18-5.14,2.18-4.15,0-6.99-2.83-6.99-6.79s2.77-6.76,6.5-6.76,6.46,2.77,6.46,6.76c0,.16-.03.35-.03.55h0l.02-.02ZM989.58,511.44h9.45c-.22-2.61-2.12-4.43-4.73-4.43s-4.48,1.82-4.72,4.43Z"/>
      <path class="st2" d="M1004.42,500.09h1.8v18.8h-1.8v-18.8Z"/>
      <path class="st2" d="M1011.23,500.09h1.8v18.8h-1.8v-18.8Z"/>
      <path class="st2" d="M1016.7,512.23c0-3.96,2.9-6.76,6.79-6.76s6.76,2.82,6.76,6.76-2.86,6.79-6.76,6.79-6.79-2.83-6.79-6.79ZM1028.43,512.23c0-3.12-2.1-5.19-4.94-5.19s-4.97,2.07-4.97,5.19,2.12,5.19,4.97,5.19,4.94-2.07,4.94-5.19Z"/>
      <path class="st2" d="M1056.28,512.16c0,4.3-1.6,6.84-4.21,6.84-1.65,0-2.77-1.01-2.86-2.77-1.01,1.74-2.83,2.77-5.06,2.77-3.59,0-6.28-2.74-6.28-6.57s2.69-6.5,6.28-6.5c2.18,0,3.97.97,5.02,2.66v-2.56h1.65v9.61c0,1.42.71,1.93,1.57,1.93,1.57,0,2.58-1.95,2.58-5.36,0-5.95-4.29-9.91-10.41-9.91s-10.43,4.15-10.43,10.16,4.18,10.21,10.33,10.21c1.52,0,3.4-.35,4.86-1.11l.43,1.23c-1.52.79-3.59,1.17-5.3,1.17-6.96,0-11.73-4.79-11.73-11.5s4.84-11.46,11.84-11.46,11.73,4.54,11.73,11.17h.02ZM1049.19,512.45c0-3.07-2.07-5.05-4.81-5.05s-4.84,1.99-4.84,5.05,2.03,5.1,4.84,5.1,4.81-1.99,4.81-5.1Z"/>
      <path class="st2" d="M1060.07,500.09h1.8v18.8h-1.8v-18.8Z"/>
      <path class="st2" d="M1065.54,512.23c0-3.96,2.9-6.76,6.79-6.76s6.76,2.82,6.76,6.76-2.86,6.79-6.76,6.79-6.79-2.83-6.79-6.79ZM1077.27,512.23c0-3.12-2.1-5.19-4.94-5.19s-4.97,2.07-4.97,5.19,2.12,5.19,4.97,5.19,4.94-2.07,4.94-5.19Z"/>
      <path class="st2" d="M1104.74,511.15v7.72h-1.8v-7.55c0-2.82-1.42-4.26-3.83-4.26-2.74,0-4.46,1.77-4.46,4.81v6.99h-1.8v-7.55c0-2.82-1.42-4.26-3.85-4.26-2.71,0-4.46,1.77-4.46,4.81v6.99h-1.8v-13.32h1.72v2.44c.93-1.6,2.66-2.53,4.89-2.53s3.92.93,4.73,2.82c.97-1.72,2.86-2.82,5.27-2.82,3.24,0,5.36,1.87,5.36,5.7h.03,0Z"/>
      <path class="st2" d="M1119.68,510.63v8.26h-1.72v-2.07c-.81,1.36-2.37,2.2-4.59,2.2-3.01,0-4.86-1.57-4.86-3.88,0-2.06,1.31-3.77,5.14-3.77h4.23v-.81c0-2.28-1.3-3.51-3.77-3.51-1.72,0-3.34.6-4.43,1.57l-.81-1.35c1.35-1.14,3.32-1.8,5.43-1.8,3.45,0,5.4,1.72,5.4,5.17h0l-.02-.02ZM1117.87,514.89v-2.18h-4.18c-2.58,0-3.42,1.01-3.42,2.37,0,1.55,1.23,2.5,3.37,2.5s3.51-.97,4.23-2.71h0v.02Z"/>
      <path class="st2" d="M1136.82,511.15v7.72h-1.8v-7.55c0-2.82-1.47-4.26-4-4.26-2.86,0-4.67,1.77-4.67,4.81v6.99h-1.8v-13.32h1.72v2.45c.97-1.61,2.77-2.56,5.06-2.56,3.24,0,5.48,1.87,5.48,5.7h.02v.02Z"/>
      <path class="st2" d="M1151.75,510.63v8.26h-1.72v-2.07c-.81,1.36-2.37,2.2-4.59,2.2-3.01,0-4.86-1.57-4.86-3.88,0-2.06,1.31-3.77,5.14-3.77h4.23v-.81c0-2.28-1.3-3.51-3.77-3.51-1.72,0-3.34.6-4.43,1.57l-.81-1.35c1.35-1.14,3.32-1.8,5.43-1.8,3.45,0,5.4,1.72,5.4,5.17h0l-.02-.02ZM1149.97,514.89v-2.18h-4.18c-2.58,0-3.42,1.01-3.42,2.37,0,1.55,1.23,2.5,3.37,2.5s3.51-.97,4.23-2.71h0v.02Z"/>
      <path class="st2" d="M1156.23,501.36c0-.68.59-1.27,1.31-1.27s1.31.55,1.31,1.23c0,.73-.55,1.31-1.31,1.31s-1.31-.59-1.31-1.3h0v.02ZM1156.64,505.56h1.8v13.32h-1.8v-13.32Z"/>
      <path class="st2" d="M1163.45,500.09h1.8v18.8h-1.8v-18.8Z"/>
      <path class="st2" d="M1168.42,517.37l.81-1.42c1.06.84,2.86,1.49,4.73,1.49,2.53,0,3.58-.85,3.58-2.18,0-3.47-8.64-.73-8.64-6,0-2.18,1.87-3.8,5.27-3.8,1.72,0,3.59.47,4.72,1.23l-.79,1.44c-1.17-.81-2.56-1.14-3.92-1.14-2.41,0-3.47.93-3.47,2.2,0,3.59,8.64.89,8.64,6,0,2.31-2.03,3.8-5.49,3.8-2.2,0-4.34-.71-5.43-1.65v.03h0Z"/>
      <path class="st2" d="M1181.47,517.62c0-.79.6-1.36,1.35-1.36s1.36.59,1.36,1.36-.63,1.39-1.36,1.39-1.35-.6-1.35-1.39Z"/>
      <path class="st2" d="M1186.28,512.23c0-3.97,2.88-6.76,6.87-6.76,2.25,0,4.15.89,5.22,2.64l-1.35.92c-.92-1.35-2.33-1.98-3.88-1.98-2.91,0-5.05,2.07-5.05,5.19s2.12,5.19,5.05,5.19c1.55,0,2.96-.6,3.88-1.95l1.35.92c-1.06,1.72-2.96,2.64-5.22,2.64-3.97,0-6.87-2.82-6.87-6.79v-.03Z"/>
      <path class="st2" d="M1200.32,512.23c0-3.96,2.88-6.76,6.79-6.76s6.76,2.82,6.76,6.76-2.86,6.79-6.76,6.79-6.79-2.83-6.79-6.79ZM1212.05,512.23c0-3.12-2.1-5.19-4.94-5.19s-4.97,2.07-4.97,5.19,2.12,5.19,4.97,5.19,4.94-2.07,4.94-5.19Z"/>
      <path class="st2" d="M1239.52,511.15v7.72h-1.8v-7.55c0-2.82-1.42-4.26-3.83-4.26-2.74,0-4.46,1.77-4.46,4.81v6.99h-1.8v-7.55c0-2.82-1.42-4.26-3.85-4.26-2.71,0-4.46,1.77-4.46,4.81v6.99h-1.8v-13.32h1.72v2.44c.93-1.6,2.66-2.53,4.89-2.53s3.92.93,4.73,2.82c.97-1.72,2.86-2.82,5.27-2.82,3.24,0,5.36,1.87,5.36,5.7h.03,0Z"/>
      <path class="st2" d="M972.06,548.34c0-4.67,1.06-8.85,2.94-11.85h1.72c-1.99,3.47-2.88,7.34-2.88,11.85s.89,8.39,2.88,11.85h-1.72c-1.87-3.07-2.94-7.2-2.94-11.85Z"/>
      <path class="st2" d="M991.76,555.29l-5.73-7.8-5.7,7.8h-2.15l6.74-9.12-6.31-8.61h2.15l5.35,7.25,5.32-7.25h2.03l-6.28,8.56,6.76,9.16h-2.18.02Z"/>
      <path class="st2" d="M1007.8,555.29l-5.73-7.8-5.7,7.8h-2.15l6.74-9.12-6.31-8.61h2.15l5.35,7.25,5.32-7.25h2.03l-6.28,8.56,6.76,9.16h-2.18.02Z"/>
      <path class="st2" d="M1023.83,555.29l-5.73-7.8-5.7,7.8h-2.15l6.74-9.12-6.31-8.61h2.15l5.35,7.25,5.32-7.25h2.03l-6.28,8.56,6.76,9.16h-2.18.02Z"/>
      <path class="st2" d="M1027.43,560.19c2.03-3.47,2.91-7.34,2.91-11.85s-.89-8.39-2.91-11.85h1.72c1.9,3.02,2.96,7.2,2.96,11.85s-1.06,8.78-2.96,11.85h-1.72Z"/>
      <path class="st2" d="M1055.4,555.29l-5.73-7.8-5.7,7.8h-2.15l6.74-9.12-6.31-8.61h2.15l5.35,7.25,5.32-7.25h2.03l-6.28,8.56,6.76,9.16h-2.18.02Z"/>
      <path class="st2" d="M1071.43,555.29l-5.73-7.8-5.7,7.8h-2.15l6.74-9.12-6.31-8.61h2.15l5.35,7.25,5.32-7.25h2.03l-6.28,8.56,6.76,9.16h-2.18.02Z"/>
      <path class="st2" d="M1087.44,555.29l-5.73-7.8-5.7,7.8h-2.15l6.74-9.12-6.31-8.61h2.15l5.35,7.25,5.32-7.25h2.03l-6.28,8.56,6.76,9.16h-2.18.02Z"/>
      <path class="st2" d="M1091.15,547.63h6.63v1.57h-6.63v-1.57Z"/>
      <path class="st2" d="M1112.87,555.29l-5.73-7.8-5.7,7.8h-2.15l6.74-9.12-6.31-8.61h2.15l5.35,7.25,5.32-7.25h2.03l-6.28,8.56,6.76,9.16h-2.18.02Z"/>
      <path class="st2" d="M1128.89,555.29l-5.73-7.8-5.7,7.8h-2.15l6.74-9.12-6.31-8.61h2.15l5.35,7.25,5.32-7.25h2.03l-6.28,8.56,6.76,9.16h-2.18.02Z"/>
      <path class="st2" d="M1144.92,555.29l-5.73-7.8-5.7,7.8h-2.15l6.74-9.12-6.31-8.61h2.15l5.35,7.25,5.32-7.25h2.03l-6.28,8.56,6.76,9.16h-2.18.02Z"/>
      <path class="st2" d="M1160.95,555.29l-5.73-7.8-5.7,7.8h-2.15l6.74-9.12-6.31-8.61h2.15l5.35,7.25,5.32-7.25h2.03l-6.28,8.56,6.76,9.16h-2.18.02Z"/>
    </g>
  </g>
  <g class="st1">
    <path class="st2" d="M332.66,158.08h-7.12v-1.25c2.14,0,2.94-2.41,2.94-6.5v-45.08c0-4.1-.81-6.5-2.94-6.5v-1.25h6.06l17.72,52.93,14.8-52.93h7.39v1.25c-2.14,0-2.94,2.41-2.94,6.5v45.08c0,4.1.81,6.5,2.94,6.5v1.25h-10.33v-1.25c2.14,0,2.94-2.41,2.94-6.5v-48.03l-15.59,55.78h-1.33l-17.47-51.86v44.1c0,4.1.81,6.5,2.94,6.5v1.25h-.02Z"/>
    <path class="st2" d="M377.11,127.79c0-16.74,13.55-30.29,30.29-30.29s30.29,13.55,30.29,30.29-13.55,30.29-30.29,30.29-30.29-13.55-30.29-30.29ZM381.57,127.79c0,16.03,11.58,29.05,25.84,29.05s25.84-13.01,25.84-29.05-11.58-29.05-25.84-29.05-25.84,13.01-25.84,29.05Z"/>
    <path class="st2" d="M456.68,97.51c17.91,0,29.5,13.55,29.5,30.29s-11.31,30.29-29.5,30.29h-13.37v-1.25c2.14,0,2.94-2.41,2.94-6.5v-45.08c0-4.1-.81-6.5-2.94-6.5v-1.25h13.37v.02ZM456.05,156.85c15.51,0,25.67-13.01,25.67-29.05s-10.33-29.05-25.67-29.05h-5.35v58.09h5.35v.02Z"/>
    <path class="st2" d="M491.78,158.08v-1.25c2.14,0,2.94-2.41,2.94-6.5v-45.08c0-4.1-.81-6.5-2.94-6.5v-1.25h36.62l2.5,11.76h-1.08s-1.42-10.51-12.03-10.51h-18.63v28.42h15.68c7.93,0,9.18-2.5,9.18-5.7h1.25v12.39h-1.25c0-2.85-1.25-5.43-9.18-5.43h-15.68v28.42h18.97c10.51,0,12.91-12.39,12.91-12.39h1.08l-3.48,13.63h-36.89.02Z"/>
    <path class="st2" d="M549.6,158.08h-10.33v-1.25c2.14,0,2.85-2.41,2.85-6.5v-45.08c0-4.1-.71-6.5-2.85-6.5v-1.25h20.76c12.66,0,20.13,7.39,20.13,16.57,0,8.29-6.23,15.14-16.84,16.39,5.62,2.5,9.18,11.05,12.91,19.88,1.6,3.75,3.56,6.5,5.7,6.5v1.25h-10.87v-1.25c.98,0,1.42-.62,1.42-1.69,0-1.16-.54-2.77-1.33-4.81-2.94-7.31-6.87-16.74-13.55-19.69h-10.97v19.69c0,4.1.81,6.5,2.94,6.5v1.25h.02ZM546.66,129.31h13.55c9.27,0,15.51-6.77,15.51-15.24s-6.41-15.32-15.51-15.32h-13.55v30.56Z"/>
    <path class="st2" d="M594.67,158.08h-7.12v-1.25c2.14,0,2.94-2.41,2.94-6.5v-45.08c0-4.1-.81-6.5-2.94-6.5v-1.25h5.79l32.52,52.13v-44.37c0-4.1-.81-6.5-2.94-6.5v-1.25h7.12v1.25c-2.14,0-2.94,2.41-2.94,6.5v52.84h-1.25l-34.12-54.61v46.87c0,4.1.81,6.5,2.94,6.5v1.25h0v-.02Z"/>
    <path class="st2" d="M671.03,158.08h-7.12v-1.25c2.14,0,2.94-2.41,2.94-6.5v-45.08c0-4.1-.81-6.5-2.94-6.5v-1.25h5.79l32.52,52.13v-44.37c0-4.1-.81-6.5-2.94-6.5v-1.25h7.12v1.25c-2.14,0-2.94,2.41-2.94,6.5v52.84h-1.25l-34.12-54.61v46.87c0,4.1.81,6.5,2.94,6.5v1.25h0v-.02Z"/>
    <path class="st2" d="M759.58,156.85v1.25h-10.43v-1.25c1.25,0,1.69-.81,1.69-2.14,0-1.08-.36-2.58-.98-4.37-.89-2.5-2.14-6.06-3.66-10.06h-25.65c-1.42,4-2.67,7.58-3.66,10.06-.62,1.79-.98,3.21-.98,4.37,0,1.33.54,2.14,1.69,2.14v1.25h-7.04v-1.25c2.23,0,3.56-2.67,4.91-6.5,3.83-10.51,18.89-52.84,18.89-52.84h1.42s13.99,39.56,18.8,52.84c1.42,3.83,2.77,6.5,4.98,6.5h0ZM745.77,138.93c-4-11.31-9.35-26.29-12.39-34.75-3.02,8.47-8.29,23.44-12.39,34.75h24.78,0Z"/>
    <path class="st2" d="M766.7,158.08v-1.25c2.14,0,2.85-2.41,2.85-6.5v-45.08c0-4.1-.71-6.5-2.85-6.5v-1.25h10.33v1.25c-2.14,0-2.94,2.41-2.94,6.5v45.08c0,4.1.81,6.5,2.94,6.5v1.25h-10.33Z"/>
    <path class="st2" d="M784.17,158.08v-1.25c2.23,0,2.94-2.41,2.94-6.5v-45.08c0-4.1-.71-6.5-2.94-6.5v-1.25h10.33v1.25c-2.14,0-2.85,2.41-2.85,6.5v51.59h18.7c10.51,0,12.91-12.39,12.91-12.39h1.08l-3.48,13.63h-36.71.02v.02Z"/>
    <path class="st2" d="M858.2,127.79c0-17.28,13.55-30.29,30.29-30.29,14.16,0,22.36,9,22.36,14.35,0,1.25-.98,2.31-2.23,2.31s-2.23-1.08-2.23-2.31c0-6.41-7.31-13.1-17.01-13.1-15.32,0-26.73,12.03-26.73,29.05s11.76,28.69,26.02,28.69,18.97-9.35,18.97-9.35l.89.54s-5.43,10.43-20.76,10.43c-16.22,0-29.58-12.03-29.58-30.29v-.03h.02Z"/>
    <path class="st2" d="M962.54,156.85v1.25h-10.43v-1.25c1.25,0,1.69-.81,1.69-2.14,0-1.08-.36-2.58-.98-4.37-.89-2.5-2.14-6.06-3.66-10.06h-25.67c-1.42,4-2.67,7.58-3.66,10.06-.62,1.79-.98,3.21-.98,4.37,0,1.33.54,2.14,1.69,2.14v1.25h-7.04v-1.25c2.23,0,3.56-2.67,4.91-6.5,3.83-10.51,18.89-52.84,18.89-52.84h1.42s13.99,39.56,18.8,52.84c1.42,3.83,2.77,6.5,4.98,6.5h.02ZM948.72,138.93c-4-11.31-9.35-26.29-12.39-34.75-3.02,8.47-8.29,23.44-12.39,34.75h24.78Z"/>
    <path class="st2" d="M979.99,158.08h-10.33v-1.25c2.14,0,2.85-2.41,2.85-6.5v-45.08c0-4.1-.71-6.5-2.85-6.5v-1.25h20.76c12.66,0,20.13,7.39,20.13,16.57,0,8.29-6.23,15.14-16.84,16.39,5.62,2.5,9.18,11.05,12.91,19.88,1.6,3.75,3.56,6.5,5.7,6.5v1.25h-10.87v-1.25c.98,0,1.42-.62,1.42-1.69,0-1.16-.54-2.77-1.33-4.81-2.94-7.31-6.87-16.74-13.55-19.69h-10.97v19.69c0,4.1.81,6.5,2.94,6.5v1.25h.02ZM977.05,129.31h13.55c9.27,0,15.51-6.77,15.51-15.24s-6.41-15.32-15.51-15.32h-13.55v30.56Z"/>
    <path class="st2" d="M1019.46,158.08v-1.25c2.14,0,2.94-2.41,2.94-6.5v-45.08c0-4.1-.81-6.5-2.94-6.5v-1.25h36.62l2.5,11.76h-1.08s-1.42-10.51-12.03-10.51h-18.63v28.42h15.68c7.93,0,9.18-2.5,9.18-5.7h1.25v12.39h-1.25c0-2.85-1.25-5.43-9.18-5.43h-15.68v28.42h18.97c10.51,0,12.91-12.39,12.91-12.39h1.08l-3.48,13.63h-36.89.02Z"/>
    <path class="st2" d="M1069.26,161.03s.71-1.33.71-2.14c0-.44-.17-.81-.71-.81-1.25,0-2.31-.98-2.31-2.23s1.08-2.31,2.31-2.31,2.23,1.08,2.23,2.31c0,3.02-1.69,5.62-1.69,5.62l-.54-.44h0Z"/>
    <path class="st2" d="M90.56,204.4c17.91,0,29.5,13.55,29.5,30.29s-11.31,30.29-29.5,30.29h-13.37v-1.25c2.14,0,2.94-2.41,2.94-6.5v-45.08c0-4.1-.81-6.5-2.94-6.5v-1.25h13.37v.02ZM89.94,263.75c15.51,0,25.67-13.01,25.67-29.05s-10.33-29.05-25.67-29.05h-5.35v58.09h5.35v.02Z"/>
    <path class="st2" d="M125.66,265v-1.25c2.14,0,2.94-2.41,2.94-6.5v-45.08c0-4.1-.81-6.5-2.94-6.5v-1.25h36.62l2.5,11.76h-1.08s-1.42-10.51-12.03-10.51h-18.63v28.42h15.68c7.93,0,9.18-2.5,9.18-5.7h1.25v12.39h-1.25c0-2.85-1.25-5.43-9.18-5.43h-15.68v28.42h18.97c10.51,0,12.91-12.39,12.91-12.39h1.08l-3.48,13.63h-36.89.02Z"/>
    <path class="st2" d="M173.95,260.18l-.81-16.22h1.25s.36,19.78,18.18,19.78c5.17,0,15.14-2.5,15.14-11.05,0-15.14-32.79-20.05-32.79-34.93,0-7.93,8.37-13.37,18.53-13.37,9.27,0,16.13,5.17,16.13,5.17l.98,12.03h-1.16s-.44-15.95-16.84-15.95c-4.72,0-13.55,2.5-13.55,11.14,0,13.72,33.23,17.91,33.23,34.85,0,8.02-9.62,13.37-20.67,13.37-9.99,0-17.64-4.81-17.64-4.81h0v-.02Z"/>
    <path class="st2" d="M217.87,265v-1.25c2.14,0,2.85-2.41,2.85-6.5v-45.08c0-4.1-.71-6.5-2.85-6.5v-1.25h10.33v1.25c-2.14,0-2.94,2.41-2.94,6.5v45.08c0,4.1.81,6.5,2.94,6.5v1.25h-10.33Z"/>
    <path class="st2" d="M233.82,234.71c0-16.74,13.63-30.29,30.38-30.29,14.16,0,22.36,9,22.36,14.35,0,1.25-.98,2.31-2.23,2.31s-2.23-1.08-2.23-2.31c0-6.41-7.31-13.1-17.11-13.1-15.24,0-26.65,13.01-26.65,29.05s11.76,28.69,26.02,28.69c9.99,0,15.41-4.98,17.74-7.66v-13.55c0-4.1-.81-6.5-2.94-6.5v-1.33h10.33v1.33c-2.14,0-2.94,2.41-2.94,6.5v22.8s-.89-5.7-3.04-5.7c-3.21,0-7.31,5.7-20.13,5.7-16.13,0-29.58-13.55-29.58-30.29h0l.02-.02Z"/>
    <path class="st2" d="M302.24,265h-7.12v-1.25c2.14,0,2.94-2.41,2.94-6.5v-45.08c0-4.1-.81-6.5-2.94-6.5v-1.25h5.79l32.52,52.13v-44.37c0-4.1-.81-6.5-2.94-6.5v-1.25h7.12v1.25c-2.14,0-2.94,2.41-2.94,6.5v52.84h-1.25l-34.12-54.61v46.87c0,4.1.81,6.5,2.94,6.5v1.25h0v-.02Z"/>
    <path class="st2" d="M344.73,265v-1.25c2.14,0,2.94-2.41,2.94-6.5v-45.08c0-4.1-.81-6.5-2.94-6.5v-1.25h36.62l2.5,11.76h-1.08s-1.42-10.51-12.03-10.51h-18.63v28.42h15.68c7.93,0,9.18-2.5,9.18-5.7h1.25v12.39h-1.25c0-2.85-1.25-5.43-9.18-5.43h-15.68v28.42h18.97c10.51,0,12.91-12.39,12.91-12.39h1.08l-3.48,13.63h-36.89.02Z"/>
    <path class="st2" d="M405.58,204.4c17.91,0,29.5,13.55,29.5,30.29s-11.31,30.29-29.5,30.29h-13.37v-1.25c2.14,0,2.94-2.41,2.94-6.5v-45.08c0-4.1-.81-6.5-2.94-6.5v-1.25h13.37v.02ZM404.96,263.75c15.51,0,25.67-13.01,25.67-29.05s-10.33-29.05-25.67-29.05h-5.35v58.09h5.35v.02Z"/>
    <path class="st2" d="M479.26,265h-10.33v-1.25c2.14,0,2.94-2.41,2.94-6.5v-45.08c0-4.1-.81-6.5-2.94-6.5v-1.25h36.89l2.5,11.76h-1.08s-1.42-10.51-12.03-10.51h-18.89v28.42h15.95c7.93,0,9.18-2.5,9.18-5.7h1.33v12.39h-1.33c0-2.85-1.25-5.43-9.18-5.43h-15.95v21.92c0,4.1.81,6.5,2.94,6.5v1.25h0v-.02Z"/>
    <path class="st2" d="M513.92,234.71c0-16.74,13.55-30.29,30.29-30.29s30.29,13.55,30.29,30.29-13.55,30.29-30.29,30.29-30.29-13.55-30.29-30.29h0ZM518.36,234.71c0,16.03,11.58,29.05,25.84,29.05s25.84-13.01,25.84-29.05-11.58-29.05-25.84-29.05-25.84,13.01-25.84,29.05Z"/>
    <path class="st2" d="M590.45,265h-10.33v-1.25c2.14,0,2.85-2.41,2.85-6.5v-45.08c0-4.1-.71-6.5-2.85-6.5v-1.25h20.76c12.66,0,20.13,7.39,20.13,16.57,0,8.29-6.23,15.14-16.84,16.39,5.62,2.5,9.18,11.05,12.91,19.88,1.6,3.75,3.56,6.5,5.7,6.5v1.25h-10.87v-1.25c.98,0,1.42-.62,1.42-1.69,0-1.16-.54-2.77-1.33-4.81-2.94-7.31-6.87-16.74-13.55-19.69h-10.97v19.69c0,4.1.81,6.5,2.94,6.5v1.25h.02ZM587.5,236.21h13.55c9.27,0,15.51-6.77,15.51-15.24s-6.41-15.32-15.51-15.32h-13.55v30.56Z"/>
    <path class="st2" d="M656.63,265v-1.25c2.14,0,2.94-2.41,2.94-6.5v-45.08c0-4.1-.81-6.5-2.94-6.5v-1.25h36.62l2.5,11.76h-1.08s-1.42-10.51-12.03-10.51h-18.63v28.42h15.68c7.93,0,9.18-2.5,9.18-5.7h1.25v12.39h-1.25c0-2.85-1.25-5.43-9.18-5.43h-15.68v28.42h18.97c10.51,0,12.91-12.39,12.91-12.39h1.08l-3.48,13.63h-36.89.02Z"/>
    <path class="st2" d="M702.6,205.65v-1.25h10.33v1.25c-1.25,0-1.69.81-1.69,2.14,0,1.08.35,2.58.98,4.37,3.48,9.62,12.2,34.21,16.49,46.16,4.19-11.93,13.01-36.52,16.49-46.16.62-1.79.98-3.21.98-4.37,0-1.33-.54-2.14-1.69-2.14v-1.25h7.04v1.25c-2.14,0-3.56,2.67-4.91,6.5-3.83,10.51-18.89,52.84-18.89,52.84h-1.42s-13.99-39.56-18.8-52.84c-1.42-3.83-2.77-6.5-4.91-6.5Z"/>
    <path class="st2" d="M758.63,265v-1.25c2.14,0,2.94-2.41,2.94-6.5v-45.08c0-4.1-.81-6.5-2.94-6.5v-1.25h36.62l2.5,11.76h-1.08s-1.42-10.51-12.03-10.51h-18.63v28.42h15.68c7.93,0,9.18-2.5,9.18-5.7h1.25v12.39h-1.25c0-2.85-1.25-5.43-9.18-5.43h-15.68v28.42h18.97c10.51,0,12.91-12.39,12.91-12.39h1.08l-3.48,13.63h-36.89.02Z"/>
    <path class="st2" d="M816.46,265h-10.33v-1.25c2.14,0,2.85-2.41,2.85-6.5v-45.08c0-4.1-.71-6.5-2.85-6.5v-1.25h20.76c12.66,0,20.13,7.39,20.13,16.57,0,8.29-6.23,15.14-16.84,16.39,5.62,2.5,9.18,11.05,12.91,19.88,1.6,3.75,3.56,6.5,5.7,6.5v1.25h-10.87v-1.25c.98,0,1.42-.62,1.42-1.69,0-1.16-.54-2.77-1.33-4.81-2.94-7.31-6.87-16.74-13.55-19.69h-10.97v19.69c0,4.1.81,6.5,2.94,6.5v1.25h.02ZM813.51,236.21h13.55c9.27,0,15.51-6.77,15.51-15.24s-6.41-15.32-15.51-15.32h-13.55v30.56Z"/>
    <path class="st2" d="M849.96,205.65v-1.25h10.33v1.25c-.71,0-1.08.36-1.08.98,0,1.16,1.08,3.21,2.41,5.52,1.16,1.96,6.6,11.49,12.2,21.3,3.92-6.68,11.49-19.69,12.47-21.3,1.25-2.14,2.04-4,2.04-5.25,0-.81-.36-1.25-1.16-1.25v-1.25h6.77v1.25c-2.23,0-4,3.04-6.14,6.5-1.08,1.87-9.72,16.49-13.28,22.55v22.55c0,4.1.81,6.5,2.94,6.5v1.25h-10.33v-1.25c2.14,0,2.94-2.41,2.94-6.5v-21.3c-6.06-10.6-12.39-21.55-13.63-23.78-2.04-3.56-4.37-6.5-6.5-6.5h0v-.02Z"/>
    <path class="st2" d="M914.46,204.4c17.91,0,29.5,13.55,29.5,30.29s-11.31,30.29-29.5,30.29h-13.37v-1.25c2.14,0,2.94-2.41,2.94-6.5v-45.08c0-4.1-.81-6.5-2.94-6.5v-1.25h13.37v.02ZM913.84,263.75c15.51,0,25.67-13.01,25.67-29.05s-10.33-29.05-25.67-29.05h-5.35v58.09h5.35v.02Z"/>
    <path class="st2" d="M992.6,263.75v1.25h-10.43v-1.25c1.25,0,1.69-.81,1.69-2.14,0-1.08-.36-2.58-.98-4.37-.89-2.5-2.14-6.06-3.66-10.06h-25.67c-1.42,4-2.67,7.58-3.66,10.06-.62,1.79-.98,3.21-.98,4.37,0,1.33.54,2.14,1.69,2.14v1.25h-7.04v-1.25c2.23,0,3.56-2.67,4.91-6.5,3.83-10.51,18.89-52.84,18.89-52.84h1.42s13.99,39.56,18.8,52.84c1.42,3.83,2.77,6.5,4.98,6.5h.02ZM978.79,245.85c-4-11.31-9.35-26.29-12.39-34.75-3.02,8.47-8.29,23.44-12.39,34.75h24.78Z"/>
    <path class="st2" d="M986.35,205.65v-1.25h10.33v1.25c-.71,0-1.08.36-1.08.98,0,1.16,1.08,3.21,2.41,5.52,1.16,1.96,6.6,11.49,12.2,21.3,3.92-6.68,11.49-19.69,12.47-21.3,1.25-2.14,2.04-4,2.04-5.25,0-.81-.36-1.25-1.16-1.25v-1.25h6.77v1.25c-2.23,0-4,3.04-6.14,6.5-1.08,1.87-9.72,16.49-13.28,22.55v22.55c0,4.1.81,6.5,2.94,6.5v1.25h-10.33v-1.25c2.14,0,2.94-2.41,2.94-6.5v-21.3c-6.06-10.6-12.39-21.55-13.63-23.78-2.04-3.56-4.37-6.5-6.5-6.5h0v-.02Z"/>
    <path class="st2" d="M1064.21,265v-1.25c2.23,0,2.94-2.41,2.94-6.5v-45.08c0-4.1-.71-6.5-2.94-6.5v-1.25h10.33v1.25c-2.14,0-2.85,2.41-2.85,6.5v51.59h18.7c10.51,0,12.91-12.39,12.91-12.39h1.08l-3.48,13.63h-36.71.02v.02Z"/>
    <path class="st2" d="M1111.53,212.16c0-4.1-.81-6.5-2.94-6.5v-1.25h10.33v1.25c-2.14,0-2.94,2.41-2.94,6.5v36.98c0,11.22,7.39,14.61,14.7,14.61,8.1,0,16.13-4.64,16.13-14.88v-36.71c0-4.1-.81-6.5-2.94-6.5v-1.25h7.12v1.25c-2.14,0-2.94,2.41-2.94,6.5v36.71c0,11.76-9.54,16.13-17.82,16.13-8.74,0-18.7-4.54-18.7-18.8v-34.04h.02Z"/>
    <path class="st2" d="M1164.89,265h-6.77v-1.25c2.14,0,4-3.02,6.14-6.5,1.08-1.79,9.62-16.49,13.18-22.55-5.79-10.24-11.68-20.4-12.83-22.55-2.04-3.56-4.37-6.5-6.5-6.5v-1.25h10.33v1.25c-.71,0-1.08.36-1.08.98,0,1.16,1.08,3.21,2.41,5.52,1.08,1.96,6.5,11.49,12.12,21.3,3.92-6.68,11.58-19.69,12.47-21.3,1.33-2.14,2.14-4.1,2.14-5.25,0-.81-.36-1.25-1.16-1.25v-1.25h6.68v1.25c-2.14,0-4,3.04-6.06,6.5-1.16,1.87-9.72,16.49-13.28,22.55,5.79,10.25,11.68,20.4,12.83,22.55,2.04,3.56,4.37,6.5,6.5,6.5v1.25h-10.33v-1.25c.71,0,1.08-.36,1.08-.98,0-1.16-1.08-3.21-2.41-5.52-1.08-1.96-6.5-11.41-12.12-21.21-3.92,6.68-11.58,19.61-12.47,21.21-1.25,2.14-2.14,4.1-2.14,5.25,0,.81.35,1.25,1.25,1.25v1.25h.02Z"/>
    <path class="st2" d="M1212.11,212.16c0-4.1-.81-6.5-2.94-6.5v-1.25h10.33v1.25c-2.14,0-2.94,2.41-2.94,6.5v36.98c0,11.22,7.39,14.61,14.7,14.61,8.1,0,16.13-4.64,16.13-14.88v-36.71c0-4.1-.81-6.5-2.94-6.5v-1.25h7.12v1.25c-2.14,0-2.94,2.41-2.94,6.5v36.71c0,11.76-9.54,16.13-17.82,16.13-8.74,0-18.7-4.54-18.7-18.8v-34.04h.02Z"/>
    <path class="st2" d="M1269.03,265h-10.33v-1.25c2.14,0,2.85-2.41,2.85-6.5v-45.08c0-4.1-.71-6.5-2.85-6.5v-1.25h20.76c12.66,0,20.13,7.39,20.13,16.57,0,8.29-6.23,15.14-16.84,16.39,5.62,2.5,9.18,11.05,12.91,19.88,1.6,3.75,3.56,6.5,5.7,6.5v1.25h-10.87v-1.25c.98,0,1.42-.62,1.42-1.69,0-1.16-.54-2.77-1.33-4.81-2.94-7.31-6.87-16.74-13.55-19.69h-10.97v19.69c0,4.1.81,6.5,2.94,6.5v1.25h.02ZM1266.1,236.21h13.55c9.27,0,15.51-6.77,15.51-15.24s-6.41-15.32-15.51-15.32h-13.55v30.56Z"/>
    <path class="st2" d="M1302.53,205.65v-1.25h10.33v1.25c-.71,0-1.08.36-1.08.98,0,1.16,1.08,3.21,2.41,5.52,1.16,1.96,6.6,11.49,12.2,21.3,3.92-6.68,11.49-19.69,12.47-21.3,1.25-2.14,2.04-4,2.04-5.25,0-.81-.36-1.25-1.16-1.25v-1.25h6.77v1.25c-2.23,0-4,3.04-6.14,6.5-1.08,1.87-9.72,16.49-13.28,22.55v22.55c0,4.1.81,6.5,2.94,6.5v1.25h-10.33v-1.25c2.14,0,2.94-2.41,2.94-6.5v-21.3c-6.06-10.6-12.39-21.55-13.63-23.78-2.04-3.56-4.37-6.5-6.5-6.5h0v-.02Z"/>
  </g>
</svg>