<?xml version="1.0" encoding="UTF-8"?>
<svg id="Layer_1" xmlns="http://www.w3.org/2000/svg" xmlns:xlink="http://www.w3.org/1999/xlink" version="1.1" viewBox="0 0 1080 1080">
  <!-- Generator: Adobe Illustrator 30.1.0, SVG Export Plug-In . SVG Version: 2.1.1 Build 136)  -->
  <defs>
    <style>
      .st0 {
        filter: url(#drop-shadow-1);
      }

      .st1 {
        filter: url(#drop-shadow-2);
      }

      .st2 {
        fill: #fff;
      }
    </style>
    <filter id="drop-shadow-1" x="51.48" y="284.04" width="890.16" height="389.52" filterUnits="userSpaceOnUse">
      <feOffset dx="7" dy="7"/>
      <feGaussianBlur result="blur" stdDeviation="5"/>
      <feFlood flood-color="#000" flood-opacity=".25"/>
      <feComposite in2="blur" operator="in"/>
      <feComposite in="SourceGraphic"/>
    </filter>
    <filter id="drop-shadow-2" x="58.92" y="688.2" width="981.12" height="140.64" filterUnits="userSpaceOnUse">
      <feOffset dx="7" dy="7"/>
      <feGaussianBlur result="blur1" stdDeviation="5"/>
      <feFlood flood-color="#000" flood-opacity=".25"/>
      <feComposite in2="blur1" operator="in"/>
      <feComposite in="SourceGraphic"/>
    </filter>
  </defs>
  <g class="st0">
    <path class="st2" d="M70.64,385.69h-11v-1.92c3.3,0,4.54-3.71,4.54-10.04v-69.57c0-6.32-1.24-10.04-4.54-10.04v-1.92h9.35l27.36,81.66,22.82-81.66h11.41v1.92c-3.3,0-4.54,3.71-4.54,10.04v69.57c0,6.32,1.24,10.04,4.54,10.04v1.92h-15.95v-1.92c3.3,0,4.54-3.71,4.54-10.04v-74.1l-24.06,86.06h-2.06l-26.95-80.01v68.05c0,6.32,1.24,10.04,4.54,10.04v1.92Z"/>
    <path class="st2" d="M139.25,338.95c0-25.85,20.9-46.74,46.74-46.74s46.74,20.9,46.74,46.74-20.9,46.74-46.74,46.74-46.74-20.9-46.74-46.74ZM146.12,338.95c0,24.75,17.87,44.82,39.87,44.82s39.87-20.07,39.87-44.82-17.87-44.82-39.87-44.82-39.87,20.07-39.87,44.82Z"/>
    <path class="st2" d="M262.02,292.2c27.63,0,45.51,20.9,45.51,46.74s-17.46,46.74-45.51,46.74h-20.62v-1.92c3.3,0,4.54-3.71,4.54-10.04v-69.57c0-6.32-1.24-10.04-4.54-10.04v-1.92h20.62ZM261.06,383.77c23.92,0,39.59-20.07,39.59-44.82s-15.95-44.82-39.59-44.82h-8.25v89.64h8.25Z"/>
    <path class="st2" d="M378.47,364.66l-5.36,21.03h-56.92v-2.06c3.3,0,4.4-3.71,4.4-10.04v-69.43c0-6.32-1.1-10.04-4.4-10.04v-1.92h56.37l3.99,18.15h-1.79s-2.2-16.22-18.42-16.22h-28.73v89.5h29.15c16.36,0,19.94-18.97,19.94-18.97h1.79ZM456.01,383.63v2.06h-16.77v-2.06c1.65,0,2.2-.96,2.2-2.61,0-1.79-.69-4.4-1.92-7.42-4.67-11.27-10.72-25.85-20.9-30.38h-17.05v30.38c0,6.32,1.24,10.04,4.54,10.04v2.06h-15.95v-2.06c3.3,0,4.54-3.71,4.54-10.04v-30.38h-25.43c-12.24,0-14.16,3.85-14.16,8.8h-2.06v-19.11h2.06c0,4.4,1.92,8.39,14.16,8.39h25.43v-37.12c0-6.32-1.24-10.04-4.54-10.04v-1.92h32.03c19.52,0,31.07,11.41,31.07,25.57,0,12.79-9.62,23.37-25.85,25.16,8.66,3.85,14.02,17.19,19.8,30.66,2.47,5.91,5.5,10.04,8.8,10.04ZM401.57,341.28h20.9c14.3,0,23.92-10.59,23.92-23.51s-9.9-23.65-23.92-23.65h-20.9v47.16Z"/>
    <path class="st2" d="M475.68,385.69h-11v-1.92c3.3,0,4.54-3.71,4.54-10.04v-69.57c0-6.32-1.24-10.04-4.54-10.04v-1.92h8.94l50.18,80.43v-68.47c0-6.32-1.24-10.04-4.54-10.04v-1.92h11v1.92c-3.3,0-4.54,3.71-4.54,10.04v81.53h-1.92l-52.66-84.28v72.32c0,6.32,1.24,10.04,4.54,10.04v1.92Z"/>
    <path class="st2" d="M593.5,385.69h-11v-1.92c3.3,0,4.54-3.71,4.54-10.04v-69.57c0-6.32-1.24-10.04-4.54-10.04v-1.92h8.94l50.18,80.43v-68.47c0-6.32-1.24-10.04-4.54-10.04v-1.92h11v1.92c-3.3,0-4.54,3.71-4.54,10.04v81.53h-1.93l-52.65-84.28v72.32c0,6.32,1.24,10.04,4.54,10.04v1.92Z"/>
    <path class="st2" d="M730.16,383.77v1.92h-16.09v-1.92c1.92,0,2.61-1.24,2.61-3.3,0-1.65-.55-3.99-1.51-6.74-1.38-3.85-3.3-9.35-5.64-15.54h-39.6c-2.2,6.19-4.12,11.69-5.64,15.54-.96,2.75-1.51,4.95-1.51,6.74,0,2.06.83,3.3,2.61,3.3v1.92h-10.86v-1.92c3.44,0,5.5-4.12,7.56-10.04,5.91-16.22,29.15-81.53,29.15-81.53h2.2s21.59,61.04,29.01,81.53c2.2,5.91,4.26,10.04,7.7,10.04ZM708.85,356.13c-6.19-17.46-14.44-40.56-19.11-53.62-4.68,13.06-12.79,36.16-19.11,53.62h38.22Z"/>
    <path class="st2" d="M741.16,385.69v-1.92c3.3,0,4.4-3.71,4.4-10.04v-69.57c0-6.32-1.1-10.04-4.4-10.04v-1.92h15.95v1.92c-3.3,0-4.54,3.71-4.54,10.04v69.57c0,6.32,1.24,10.04,4.54,10.04v1.92h-15.95Z"/>
    <path class="st2" d="M768.11,385.69v-1.92c3.44,0,4.54-3.71,4.54-10.04v-69.57c0-6.32-1.1-10.04-4.54-10.04v-1.92h15.95v1.92c-3.3,0-4.4,3.71-4.4,10.04v79.6h28.87c16.22,0,19.93-19.11,19.93-19.11h1.65l-5.36,21.03h-56.64Z"/>
    <path class="st2" d="M842.35,378.27l-1.24-25.02h1.93s.55,30.52,28.04,30.52c7.97,0,23.37-3.85,23.37-17.05,0-23.37-50.59-30.93-50.59-53.89,0-12.24,12.92-20.62,28.6-20.62,14.3,0,24.88,7.97,24.88,7.97l1.51,18.56h-1.79s-.69-24.61-25.98-24.61c-7.29,0-20.9,3.85-20.9,17.19,0,21.17,51.28,27.63,51.28,53.75,0,12.37-14.85,20.62-31.9,20.62-15.4,0-27.22-7.42-27.22-7.42Z"/>
    <path class="st2" d="M916.04,390.23s1.1-2.06,1.1-3.3c0-.69-.28-1.24-1.1-1.24-1.92,0-3.57-1.51-3.57-3.44s1.65-3.58,3.57-3.58,3.44,1.65,3.44,3.58c0,4.67-2.61,8.66-2.61,8.66l-.83-.69Z"/>
    <path class="st2" d="M59.64,518.51v-1.92c3.3,0,4.54-3.71,4.54-10.04v-69.57c0-6.32-1.24-10.04-4.54-10.04v-1.92h56.5l3.85,18.15h-1.65s-2.2-16.22-18.56-16.22h-28.73v43.86h24.2c12.24,0,14.16-3.85,14.16-8.8h1.92v19.11h-1.92c0-4.4-1.92-8.39-14.16-8.39h-24.2v43.86h29.28c16.22,0,19.94-19.11,19.94-19.11h1.65l-5.36,21.04h-56.92Z"/>
    <path class="st2" d="M148.87,518.51h-15.95v-1.92c3.3,0,4.54-3.71,4.54-10.04v-69.57c0-6.32-1.24-10.04-4.54-10.04v-1.92h56.92l3.85,18.15h-1.65s-2.2-16.22-18.56-16.22h-29.15v43.86h24.61c12.24,0,14.16-3.85,14.16-8.8h2.06v19.11h-2.06c0-4.4-1.92-8.39-14.16-8.39h-24.61v33.82c0,6.32,1.24,10.04,4.54,10.04v1.92Z"/>
    <path class="st2" d="M220.64,518.51h-15.95v-1.92c3.3,0,4.54-3.71,4.54-10.04v-69.57c0-6.32-1.24-10.04-4.54-10.04v-1.92h56.92l3.85,18.15h-1.65s-2.2-16.22-18.56-16.22h-29.15v43.86h24.61c12.24,0,14.16-3.85,14.16-8.8h2.06v19.11h-2.06c0-4.4-1.92-8.39-14.16-8.39h-24.61v33.82c0,6.32,1.24,10.04,4.54,10.04v1.92Z"/>
    <path class="st2" d="M274.12,471.76c0-25.85,20.9-46.74,46.74-46.74s46.74,20.9,46.74,46.74-20.9,46.74-46.74,46.74-46.74-20.9-46.74-46.74ZM280.99,471.76c0,24.75,17.87,44.82,39.87,44.82s39.87-20.07,39.87-44.82-17.87-44.82-39.87-44.82-39.87,20.07-39.87,44.82Z"/>
    <path class="st2" d="M392.22,518.51h-15.95v-1.92c3.3,0,4.4-3.71,4.4-10.04v-69.57c0-6.32-1.1-10.04-4.4-10.04v-1.92h32.03c19.52,0,31.07,11.41,31.07,25.57,0,12.79-9.62,23.37-25.98,25.3,8.66,3.85,14.16,17.05,19.93,30.66,2.48,5.77,5.5,10.04,8.8,10.04v1.92h-16.77v-1.92c1.51,0,2.2-.96,2.2-2.61,0-1.79-.83-4.26-2.06-7.42-4.54-11.27-10.59-25.85-20.9-30.38h-16.91v30.38c0,6.32,1.24,10.04,4.54,10.04v1.92ZM387.68,474.1h20.9c14.3,0,23.92-10.45,23.92-23.51s-9.9-23.65-23.92-23.65h-20.9v47.16Z"/>
    <path class="st2" d="M468.8,426.94c-16.36,0-18.56,16.22-18.56,16.22h-1.65l3.85-18.15h60.08l3.99,18.15h-1.79s-2.2-16.22-18.42-16.22h-10.31v79.6c0,6.32,1.24,10.04,4.54,10.04v1.92h-15.95v-1.92c3.3,0,4.54-3.71,4.54-10.04v-79.6h-10.31Z"/>
    <path class="st2" d="M527.51,518.51v-1.92c3.44,0,4.54-3.71,4.54-10.04v-69.57c0-6.32-1.1-10.04-4.54-10.04v-1.92h15.95v1.92c-3.3,0-4.4,3.71-4.4,10.04v79.6h28.87c16.22,0,19.94-19.11,19.94-19.11h1.65l-5.36,21.04h-56.64Z"/>
    <path class="st2" d="M598.17,518.51v-2.06c3.3,0,4.4-3.71,4.4-10.04v-69.43c0-6.32-1.1-10.04-4.4-10.04v-1.92h56.37l3.99,18.15h-1.79s-2.2-16.22-18.42-16.22h-28.73v43.72h24.2c12.1,0,14.16-3.85,14.16-8.66h1.93v19.11h-1.93c0-4.4-2.06-8.39-14.16-8.39h-24.2v43.72h29.42c30.93,0,39.04,13.61,59.8,13.61,7.97,0,23.37-6.6,23.37-22.41,0-29.28-50.46-39.18-50.46-62,0-12.37,12.92-20.62,28.6-20.62,14.16,0,24.75,7.97,24.75,7.97l1.51,18.42h-1.79s-.69-24.47-25.98-24.47c-7.15,0-20.76,3.85-20.76,17.05,0,21.31,51.14,29.56,51.14,62.14,0,16.09-14.85,25.98-31.76,25.98-29.15,0-37.39-13.61-72.32-13.61h-26.95Z"/>
    <path class="st2" d="M741.43,511.08l-1.24-25.02h1.92s.55,30.52,28.05,30.52c7.97,0,23.37-3.85,23.37-17.05,0-23.37-50.59-30.93-50.59-53.89,0-12.24,12.92-20.62,28.6-20.62,14.3,0,24.88,7.97,24.88,7.97l1.51,18.56h-1.79s-.69-24.61-25.98-24.61c-7.29,0-20.9,3.85-20.9,17.19,0,21.17,51.28,27.63,51.28,53.76,0,12.37-14.85,20.62-31.89,20.62-15.4,0-27.22-7.42-27.22-7.42Z"/>
    <path class="st2" d="M59.64,651.32v-1.92c3.3,0,4.4-3.71,4.4-10.04v-69.57c0-6.32-1.1-10.04-4.4-10.04v-1.92h30.8c14.3,0,24.75,9.9,24.75,22.13,0,9.49-5.77,17.6-15.26,20.76,15.12,2.47,24.06,12.79,24.06,25.02,0,14.16-11.69,25.57-31.07,25.57h-33.27ZM71.05,600.18h17.05c13.06,0,20.21-8.94,20.21-20.21s-7.84-20.21-20.21-20.21h-17.05v40.42ZM71.05,649.4h22.13c14.16,0,23.78-10.59,23.78-23.65s-9.9-23.51-23.78-23.51h-22.13v47.16Z"/>
    <path class="st2" d="M132.65,651.32v-1.92c3.3,0,4.54-3.71,4.54-10.04v-69.57c0-6.32-1.24-10.04-4.54-10.04v-1.92h56.5l3.85,18.15h-1.65s-2.2-16.22-18.56-16.22h-28.73v43.86h24.2c12.24,0,14.16-3.85,14.16-8.8h1.92v19.11h-1.92c0-4.4-1.92-8.39-14.16-8.39h-24.2v43.86h29.28c16.22,0,19.93-19.11,19.93-19.11h1.65l-5.36,21.04h-56.92Z"/>
    <path class="st2" d="M279.2,649.4v1.92h-16.08v-1.92c1.92,0,2.61-1.24,2.61-3.3,0-1.65-.55-3.99-1.51-6.74-1.38-3.85-3.3-9.35-5.64-15.54h-39.59c-2.2,6.19-4.12,11.69-5.64,15.54-.96,2.75-1.51,4.95-1.51,6.74,0,2.06.82,3.3,2.61,3.3v1.92h-10.86v-1.92c3.44,0,5.5-4.12,7.56-10.04,5.91-16.22,29.15-81.53,29.15-81.53h2.2s21.58,61.04,29.01,81.53c2.2,5.91,4.26,10.04,7.7,10.04ZM257.9,621.76c-6.19-17.46-14.44-40.56-19.11-53.62-4.67,13.06-12.79,36.16-19.11,53.62h38.22Z"/>
    <path class="st2" d="M285.67,569.8c0-6.32-1.24-10.04-4.54-10.04v-1.92h15.95v1.92c-3.3,0-4.54,3.71-4.54,10.04v57.06c0,17.32,11.41,22.55,22.68,22.55,12.51,0,24.88-7.15,24.88-22.96v-56.64c0-6.32-1.24-10.04-4.54-10.04v-1.92h11v1.92c-3.3,0-4.54,3.71-4.54,10.04v56.64c0,18.15-14.71,24.88-27.5,24.88-13.47,0-28.87-7.01-28.87-29.01v-52.52Z"/>
    <path class="st2" d="M377.79,559.76c-16.36,0-18.56,16.22-18.56,16.22h-1.65l3.85-18.15h60.08l3.99,18.15h-1.79s-2.2-16.22-18.42-16.22h-10.31v79.6c0,6.32,1.24,10.04,4.54,10.04v1.92h-15.95v-1.92c3.3,0,4.54-3.71,4.54-10.04v-79.6h-10.31Z"/>
    <path class="st2" d="M434.15,559.76v-1.92h15.95v1.92c-1.1,0-1.65.55-1.65,1.51,0,1.79,1.65,4.95,3.71,8.52,1.79,3.03,10.17,17.74,18.83,32.86,6.05-10.31,17.73-30.38,19.25-32.86,1.92-3.3,3.16-6.19,3.16-8.11,0-1.24-.55-1.92-1.79-1.92v-1.92h10.45v1.92c-3.44,0-6.19,4.67-9.49,10.04-1.65,2.89-14.99,25.43-20.48,34.78v34.78c0,6.32,1.24,10.04,4.54,10.04v1.92h-15.95v-1.92c3.3,0,4.54-3.71,4.54-10.04v-32.86c-9.35-16.36-19.11-33.27-21.03-36.71-3.16-5.5-6.74-10.04-10.04-10.04Z"/>
  </g>
  <g class="st1">
    <path class="st2" d="M92.96,722.81h-18.42l-3.97,8.83h-3.64l15.11-33.06h3.45l15.11,33.06h-3.68l-3.97-8.83ZM91.68,719.98l-7.93-17.76-7.93,17.76h15.87Z"/>
    <path class="st2" d="M158.74,717.24v14.4h-3.35v-14.07c0-5.24-2.64-7.93-7.13-7.93-5.1,0-8.31,3.31-8.31,8.97v13.03h-3.35v-14.07c0-5.24-2.64-7.93-7.18-7.93-5.05,0-8.31,3.31-8.31,8.97v13.03h-3.35v-24.84h3.21v4.53c1.75-2.98,4.96-4.72,9.11-4.72s7.32,1.75,8.83,5.24c1.79-3.21,5.34-5.24,9.82-5.24,6.04,0,10.01,3.49,10.01,10.63Z"/>
    <path class="st2" d="M165.45,719.22c0-7.37,5.38-12.61,12.66-12.61s12.61,5.24,12.61,12.61-5.34,12.66-12.61,12.66-12.66-5.29-12.66-12.66ZM187.32,719.22c0-5.81-3.92-9.68-9.21-9.68s-9.26,3.87-9.26,9.68,3.97,9.68,9.26,9.68,9.21-3.87,9.21-9.68Z"/>
    <path class="st2" d="M220.23,696.6v35.04h-3.21v-4.91c-2.03,3.35-5.48,5.15-9.59,5.15-7.08,0-12.37-5.15-12.37-12.66s5.29-12.61,12.37-12.61c3.97,0,7.37,1.7,9.45,4.91v-14.92h3.35ZM216.93,719.22c0-5.81-3.97-9.68-9.21-9.68s-9.26,3.87-9.26,9.68,3.97,9.68,9.26,9.68,9.21-3.87,9.21-9.68Z"/>
    <path class="st2" d="M251.22,720.26h-20.78c.38,5.19,4.34,8.64,9.78,8.64,3.02,0,5.71-1.09,7.6-3.26l1.89,2.17c-2.22,2.64-5.67,4.06-9.59,4.06-7.74,0-13.03-5.29-13.03-12.66s5.15-12.61,12.14-12.61,12.04,5.15,12.04,12.61c0,.28-.05.66-.05,1.04ZM230.44,717.76h17.62c-.42-4.86-3.97-8.26-8.83-8.26s-8.36,3.4-8.78,8.26Z"/>
    <path class="st2" d="M270.63,706.61v3.26c-.28,0-.57-.05-.8-.05-5.19,0-8.36,3.31-8.36,9.16v12.66h-3.35v-24.84h3.21v4.86c1.56-3.31,4.72-5.05,9.3-5.05Z"/>
    <path class="st2" d="M299.53,717.24v14.4h-3.35v-14.07c0-5.24-2.74-7.93-7.46-7.93-5.34,0-8.69,3.31-8.69,8.97v13.03h-3.35v-24.84h3.21v4.58c1.79-3.02,5.15-4.77,9.45-4.77,6.04,0,10.2,3.49,10.2,10.63Z"/>
    <path class="st2" d="M317.57,728.81l1.51-2.64c1.98,1.56,5.34,2.79,8.83,2.79,4.72,0,6.66-1.61,6.66-4.06,0-6.47-16.1-1.37-16.1-11.19,0-4.06,3.5-7.08,9.82-7.08,3.21,0,6.71.9,8.78,2.31l-1.46,2.69c-2.17-1.51-4.77-2.12-7.32-2.12-4.49,0-6.47,1.75-6.47,4.11,0,6.71,16.1,1.65,16.1,11.19,0,4.3-3.78,7.08-10.25,7.08-4.11,0-8.08-1.32-10.11-3.07Z"/>
    <path class="st2" d="M362.86,716.25v15.4h-3.21v-3.87c-1.51,2.55-4.44,4.11-8.55,4.11-5.62,0-9.07-2.93-9.07-7.23,0-3.83,2.46-7.04,9.59-7.04h7.89v-1.51c0-4.25-2.41-6.56-7.04-6.56-3.21,0-6.23,1.13-8.26,2.93l-1.51-2.5c2.5-2.12,6.19-3.35,10.11-3.35,6.42,0,10.06,3.21,10.06,9.63ZM359.51,724.18v-4.06h-7.79c-4.82,0-6.38,1.89-6.38,4.44,0,2.88,2.31,4.68,6.28,4.68s6.56-1.79,7.89-5.05Z"/>
    <path class="st2" d="M371.98,696.6h3.35v35.04h-3.35v-35.04Z"/>
    <path class="st2" d="M382.18,719.22c0-7.37,5.38-12.61,12.66-12.61s12.61,5.24,12.61,12.61-5.34,12.66-12.61,12.66-12.66-5.29-12.66-12.66ZM404.04,719.22c0-5.81-3.92-9.68-9.21-9.68s-9.26,3.87-9.26,9.68,3.97,9.68,9.26,9.68,9.21-3.87,9.21-9.68Z"/>
    <path class="st2" d="M437.15,717.24v14.4h-3.35v-14.07c0-5.24-2.74-7.93-7.46-7.93-5.34,0-8.69,3.31-8.69,8.97v13.03h-3.35v-24.84h3.21v4.58c1.79-3.02,5.15-4.77,9.45-4.77,6.04,0,10.2,3.49,10.2,10.63Z"/>
    <path class="st2" d="M462.46,703.88v2.93h7.65v2.83h-7.56v22.01h-3.35v-22.01h-4.44v-2.83h4.44v-3.07c0-4.44,2.64-7.37,7.51-7.37,1.84,0,3.73.52,4.96,1.56l-1.13,2.5c-.94-.8-2.27-1.23-3.68-1.23-2.88,0-4.39,1.61-4.39,4.68Z"/>
    <path class="st2" d="M471.72,719.22c0-7.37,5.38-12.61,12.66-12.61s12.61,5.24,12.61,12.61-5.34,12.66-12.61,12.66-12.66-5.29-12.66-12.66ZM493.59,719.22c0-5.81-3.92-9.68-9.21-9.68s-9.26,3.87-9.26,9.68,3.97,9.68,9.26,9.68,9.21-3.87,9.21-9.68Z"/>
    <path class="st2" d="M516.35,706.61v3.26c-.28,0-.57-.05-.8-.05-5.19,0-8.36,3.31-8.36,9.16v12.66h-3.35v-24.84h3.21v4.86c1.56-3.31,4.72-5.05,9.3-5.05Z"/>
    <path class="st2" d="M560.32,719.22c0,7.56-5.29,12.66-12.37,12.66-3.97,0-7.37-1.7-9.44-4.91v13.84h-3.35v-34h3.21v4.91c2.03-3.31,5.48-5.1,9.59-5.1,7.08,0,12.37,5.1,12.37,12.61ZM556.96,719.22c0-5.76-4.02-9.68-9.26-9.68s-9.26,3.92-9.26,9.68,3.97,9.68,9.26,9.68,9.26-3.87,9.26-9.68Z"/>
    <path class="st2" d="M588.79,720.26h-20.78c.38,5.19,4.35,8.64,9.78,8.64,3.02,0,5.71-1.09,7.6-3.26l1.89,2.17c-2.22,2.64-5.67,4.06-9.59,4.06-7.74,0-13.03-5.29-13.03-12.66s5.15-12.61,12.14-12.61,12.04,5.15,12.04,12.61c0,.28-.05.66-.05,1.04ZM568.02,717.76h17.62c-.42-4.86-3.97-8.26-8.83-8.26s-8.36,3.4-8.79,8.26Z"/>
    <path class="st2" d="M593.19,719.22c0-7.37,5.38-12.61,12.66-12.61s12.61,5.24,12.61,12.61-5.34,12.66-12.61,12.66-12.66-5.29-12.66-12.66ZM615.05,719.22c0-5.81-3.92-9.68-9.21-9.68s-9.26,3.87-9.26,9.68,3.97,9.68,9.26,9.68,9.21-3.87,9.21-9.68Z"/>
    <path class="st2" d="M650.47,719.22c0,7.56-5.29,12.66-12.37,12.66-3.97,0-7.37-1.7-9.45-4.91v13.84h-3.35v-34h3.21v4.91c2.03-3.31,5.48-5.1,9.59-5.1,7.08,0,12.37,5.1,12.37,12.61ZM647.12,719.22c0-5.76-4.01-9.68-9.26-9.68s-9.26,3.92-9.26,9.68,3.97,9.68,9.26,9.68,9.26-3.87,9.26-9.68Z"/>
    <path class="st2" d="M657.32,696.6h3.35v35.04h-3.35v-35.04Z"/>
    <path class="st2" d="M691.66,720.26h-20.78c.38,5.19,4.34,8.64,9.78,8.64,3.02,0,5.71-1.09,7.6-3.26l1.89,2.17c-2.22,2.64-5.67,4.06-9.59,4.06-7.75,0-13.04-5.29-13.04-12.66s5.15-12.61,12.14-12.61,12.04,5.15,12.04,12.61c0,.28-.05.66-.05,1.04ZM670.88,717.76h17.62c-.43-4.86-3.97-8.26-8.83-8.26s-8.36,3.4-8.78,8.26Z"/>
    <path class="st2" d="M747.38,706.8l-9.4,24.84h-3.16l-7.84-20.35-7.84,20.35h-3.16l-9.35-24.84h3.21l7.79,21.11,7.98-21.11h2.88l7.94,21.11,7.89-21.11h3.07Z"/>
    <path class="st2" d="M775.3,717.24v14.4h-3.35v-14.07c0-5.24-2.74-7.93-7.46-7.93-5.34,0-8.69,3.31-8.69,8.97v13.03h-3.35v-35.04h3.35v14.54c1.84-2.88,5.1-4.53,9.3-4.53,6.04,0,10.2,3.49,10.2,10.63Z"/>
    <path class="st2" d="M782,719.22c0-7.37,5.38-12.61,12.66-12.61s12.61,5.24,12.61,12.61-5.34,12.66-12.61,12.66-12.66-5.29-12.66-12.66ZM803.87,719.22c0-5.81-3.92-9.68-9.21-9.68s-9.26,3.87-9.26,9.68,3.97,9.68,9.26,9.68,9.21-3.87,9.21-9.68Z"/>
    <path class="st2" d="M90.27,782.03v15.4h-3.21v-3.87c-1.51,2.55-4.44,4.11-8.55,4.11-5.62,0-9.07-2.93-9.07-7.23,0-3.83,2.46-7.04,9.59-7.04h7.89v-1.51c0-4.25-2.41-6.56-7.04-6.56-3.21,0-6.23,1.13-8.26,2.93l-1.51-2.5c2.5-2.12,6.19-3.35,10.11-3.35,6.42,0,10.06,3.21,10.06,9.63ZM86.91,789.96v-4.06h-7.79c-4.82,0-6.38,1.89-6.38,4.44,0,2.88,2.31,4.68,6.28,4.68s6.56-1.79,7.89-5.05Z"/>
    <path class="st2" d="M124.55,785c0,7.56-5.29,12.66-12.37,12.66-3.97,0-7.37-1.7-9.45-4.91v13.84h-3.35v-34h3.21v4.91c2.03-3.31,5.48-5.1,9.59-5.1,7.08,0,12.37,5.1,12.37,12.61ZM121.2,785c0-5.76-4.01-9.68-9.26-9.68s-9.26,3.92-9.26,9.68,3.97,9.68,9.26,9.68,9.26-3.87,9.26-9.68Z"/>
    <path class="st2" d="M156.57,785c0,7.56-5.29,12.66-12.37,12.66-3.97,0-7.37-1.7-9.45-4.91v13.84h-3.35v-34h3.21v4.91c2.03-3.31,5.48-5.1,9.59-5.1,7.08,0,12.37,5.1,12.37,12.61ZM153.22,785c0-5.76-4.01-9.68-9.26-9.68s-9.26,3.92-9.26,9.68,3.97,9.68,9.26,9.68,9.26-3.87,9.26-9.68Z"/>
    <path class="st2" d="M175.94,772.4v3.26c-.28,0-.57-.05-.8-.05-5.19,0-8.36,3.31-8.36,9.16v12.66h-3.35v-24.84h3.21v4.86c1.56-3.31,4.72-5.05,9.3-5.05Z"/>
    <path class="st2" d="M203.37,786.04h-20.78c.38,5.2,4.34,8.64,9.78,8.64,3.02,0,5.71-1.09,7.6-3.26l1.89,2.17c-2.22,2.64-5.67,4.06-9.59,4.06-7.74,0-13.03-5.29-13.03-12.66s5.15-12.61,12.14-12.61,12.04,5.15,12.04,12.61c0,.28-.05.66-.05,1.04ZM182.6,783.54h17.62c-.42-4.86-3.97-8.26-8.83-8.26s-8.36,3.4-8.78,8.26Z"/>
    <path class="st2" d="M207.77,785c0-7.41,5.38-12.61,12.8-12.61,4.2,0,7.75,1.65,9.73,4.91l-2.5,1.7c-1.7-2.5-4.34-3.68-7.23-3.68-5.43,0-9.4,3.87-9.4,9.68s3.97,9.68,9.4,9.68c2.88,0,5.53-1.13,7.23-3.64l2.5,1.7c-1.98,3.21-5.53,4.91-9.73,4.91-7.41,0-12.8-5.24-12.8-12.66Z"/>
    <path class="st2" d="M236.1,764.74c0-1.27,1.09-2.36,2.46-2.36s2.46,1.04,2.46,2.31c0,1.37-1.04,2.46-2.46,2.46s-2.46-1.09-2.46-2.41ZM236.86,772.58h3.35v24.84h-3.35v-24.84Z"/>
    <path class="st2" d="M268.31,782.03v15.4h-3.21v-3.87c-1.51,2.55-4.44,4.11-8.55,4.11-5.62,0-9.07-2.93-9.07-7.23,0-3.83,2.46-7.04,9.59-7.04h7.89v-1.51c0-4.25-2.41-6.56-7.04-6.56-3.21,0-6.23,1.13-8.26,2.93l-1.51-2.5c2.5-2.12,6.19-3.35,10.11-3.35,6.42,0,10.06,3.21,10.06,9.63ZM264.96,789.96v-4.06h-7.79c-4.82,0-6.38,1.89-6.38,4.44,0,2.88,2.31,4.68,6.28,4.68s6.56-1.79,7.89-5.05Z"/>
    <path class="st2" d="M290.51,795.91c-1.32,1.18-3.31,1.75-5.24,1.75-4.68,0-7.27-2.64-7.27-7.23v-15.02h-4.44v-2.83h4.44v-5.43h3.35v5.43h7.56v2.83h-7.56v14.83c0,2.93,1.51,4.53,4.3,4.53,1.37,0,2.74-.42,3.68-1.28l1.18,2.41Z"/>
    <path class="st2" d="M317.33,786.04h-20.78c.38,5.2,4.34,8.64,9.78,8.64,3.02,0,5.71-1.09,7.6-3.26l1.89,2.17c-2.22,2.64-5.67,4.06-9.59,4.06-7.74,0-13.03-5.29-13.03-12.66s5.15-12.61,12.14-12.61,12.04,5.15,12.04,12.61c0,.28-.05.66-.05,1.04ZM296.55,783.54h17.62c-.42-4.86-3.97-8.26-8.83-8.26s-8.36,3.4-8.78,8.26Z"/>
    <path class="st2" d="M361.77,785c0,7.51-5.29,12.66-12.37,12.66-4.11,0-7.56-1.79-9.59-5.15v4.91h-3.21v-35.04h3.35v14.92c2.08-3.21,5.48-4.91,9.45-4.91,7.08,0,12.37,5.1,12.37,12.61ZM358.42,785c0-5.81-4.01-9.68-9.26-9.68s-9.26,3.87-9.26,9.68,3.97,9.68,9.26,9.68,9.26-3.87,9.26-9.68Z"/>
    <path class="st2" d="M390.25,786.04h-20.78c.38,5.2,4.34,8.64,9.78,8.64,3.02,0,5.71-1.09,7.6-3.26l1.89,2.17c-2.22,2.64-5.67,4.06-9.59,4.06-7.74,0-13.03-5.29-13.03-12.66s5.15-12.61,12.14-12.61,12.04,5.15,12.04,12.61c0,.28-.05.66-.05,1.04ZM369.47,783.54h17.62c-.42-4.86-3.97-8.26-8.83-8.26s-8.36,3.4-8.78,8.26Z"/>
    <path class="st2" d="M415.19,782.03v15.4h-3.21v-3.87c-1.51,2.55-4.44,4.11-8.55,4.11-5.62,0-9.07-2.93-9.07-7.23,0-3.83,2.46-7.04,9.59-7.04h7.89v-1.51c0-4.25-2.41-6.56-7.04-6.56-3.21,0-6.23,1.13-8.26,2.93l-1.51-2.5c2.5-2.12,6.19-3.35,10.11-3.35,6.42,0,10.06,3.21,10.06,9.63ZM411.83,789.96v-4.06h-7.79c-4.82,0-6.38,1.89-6.38,4.44,0,2.88,2.31,4.68,6.28,4.68s6.56-1.79,7.89-5.05Z"/>
    <path class="st2" d="M446.69,772.58v24.84h-3.21v-4.53c-1.75,3.02-4.96,4.77-8.93,4.77-6.33,0-10.48-3.54-10.48-10.67v-14.4h3.35v14.07c0,5.29,2.74,7.98,7.46,7.98,5.19,0,8.45-3.35,8.45-9.02v-13.03h3.35Z"/>
    <path class="st2" d="M469.17,795.91c-1.32,1.18-3.31,1.75-5.24,1.75-4.68,0-7.27-2.64-7.27-7.23v-15.02h-4.44v-2.83h4.44v-5.43h3.35v5.43h7.56v2.83h-7.56v14.83c0,2.93,1.51,4.53,4.3,4.53,1.37,0,2.74-.42,3.68-1.28l1.18,2.41Z"/>
    <path class="st2" d="M495.66,772.58l-12.42,27.82c-2.08,4.86-4.72,6.42-8.26,6.42-2.31,0-4.53-.76-6.04-2.27l1.56-2.5c1.23,1.23,2.74,1.89,4.53,1.89,2.22,0,3.73-1.04,5.15-4.16l1.09-2.41-11.1-24.79h3.49l9.35,21.11,9.35-21.11h3.31Z"/>
    <path class="st2" d="M535.43,762.38v35.04h-3.21v-4.91c-2.03,3.35-5.48,5.15-9.59,5.15-7.08,0-12.37-5.15-12.37-12.66s5.29-12.61,12.37-12.61c3.97,0,7.37,1.7,9.45,4.91v-14.92h3.35ZM532.12,785c0-5.81-3.97-9.68-9.21-9.68s-9.26,3.87-9.26,9.68,3.97,9.68,9.26,9.68,9.21-3.87,9.21-9.68Z"/>
    <path class="st2" d="M542.28,785c0-7.37,5.38-12.61,12.66-12.61s12.61,5.24,12.61,12.61-5.34,12.66-12.61,12.66-12.66-5.29-12.66-12.66ZM564.14,785c0-5.81-3.92-9.68-9.21-9.68s-9.26,3.87-9.26,9.68,3.97,9.68,9.26,9.68,9.21-3.87,9.21-9.68Z"/>
    <path class="st2" d="M597.25,783.02v14.4h-3.35v-14.07c0-5.24-2.74-7.93-7.46-7.93-5.34,0-8.69,3.31-8.69,8.97v13.03h-3.35v-24.84h3.21v4.58c1.79-3.02,5.15-4.77,9.45-4.77,6.04,0,10.2,3.49,10.2,10.62Z"/>
    <path class="st2" d="M628.09,786.04h-20.78c.38,5.2,4.34,8.64,9.78,8.64,3.02,0,5.71-1.09,7.6-3.26l1.89,2.17c-2.22,2.64-5.67,4.06-9.59,4.06-7.75,0-13.04-5.29-13.04-12.66s5.15-12.61,12.14-12.61,12.04,5.15,12.04,12.61c0,.28-.05.66-.05,1.04ZM607.31,783.54h17.62c-.43-4.86-3.97-8.26-8.83-8.26s-8.36,3.4-8.78,8.26Z"/>
    <path class="st2" d="M643.91,794.59l1.51-2.64c1.98,1.56,5.34,2.79,8.83,2.79,4.72,0,6.66-1.61,6.66-4.06,0-6.47-16.1-1.37-16.1-11.19,0-4.06,3.49-7.08,9.82-7.08,3.21,0,6.71.9,8.79,2.31l-1.46,2.69c-2.17-1.51-4.77-2.13-7.32-2.13-4.49,0-6.47,1.75-6.47,4.11,0,6.71,16.1,1.65,16.1,11.19,0,4.3-3.78,7.08-10.25,7.08-4.11,0-8.08-1.32-10.11-3.07Z"/>
    <path class="st2" d="M669.7,764.74c0-1.27,1.09-2.36,2.46-2.36s2.46,1.04,2.46,2.31c0,1.37-1.04,2.46-2.46,2.46s-2.46-1.09-2.46-2.41ZM670.45,772.58h3.35v24.84h-3.35v-24.84Z"/>
    <path class="st2" d="M724.15,783.02v14.4h-3.35v-14.07c0-5.24-2.64-7.93-7.13-7.93-5.1,0-8.31,3.31-8.31,8.97v13.03h-3.35v-14.07c0-5.24-2.64-7.93-7.18-7.93-5.05,0-8.31,3.31-8.31,8.97v13.03h-3.35v-24.84h3.21v4.53c1.75-2.97,4.96-4.72,9.11-4.72s7.32,1.75,8.83,5.24c1.79-3.21,5.34-5.24,9.82-5.24,6.04,0,10.01,3.49,10.01,10.62Z"/>
    <path class="st2" d="M758.44,785c0,7.56-5.29,12.66-12.37,12.66-3.97,0-7.37-1.7-9.45-4.91v13.84h-3.35v-34h3.21v4.91c2.03-3.31,5.48-5.1,9.59-5.1,7.08,0,12.37,5.1,12.37,12.61ZM755.08,785c0-5.76-4.01-9.68-9.26-9.68s-9.26,3.92-9.26,9.68,3.97,9.68,9.26,9.68,9.26-3.87,9.26-9.68Z"/>
    <path class="st2" d="M765.28,762.38h3.35v35.04h-3.35v-35.04Z"/>
    <path class="st2" d="M798.86,772.58l-12.42,27.82c-2.08,4.86-4.72,6.42-8.27,6.42-2.31,0-4.53-.76-6.04-2.27l1.56-2.5c1.23,1.23,2.74,1.89,4.53,1.89,2.22,0,3.73-1.04,5.15-4.16l1.09-2.41-11.1-24.79h3.49l9.35,21.11,9.35-21.11h3.31Z"/>
    <path class="st2" d="M834.71,782.03v15.4h-3.21v-3.87c-1.51,2.55-4.44,4.11-8.55,4.11-5.62,0-9.07-2.93-9.07-7.23,0-3.83,2.46-7.04,9.59-7.04h7.89v-1.51c0-4.25-2.41-6.56-7.04-6.56-3.21,0-6.23,1.13-8.26,2.93l-1.51-2.5c2.5-2.12,6.19-3.35,10.11-3.35,6.42,0,10.06,3.21,10.06,9.63ZM831.35,789.96v-4.06h-7.79c-4.82,0-6.38,1.89-6.38,4.44,0,2.88,2.31,4.68,6.28,4.68s6.56-1.79,7.89-5.05Z"/>
    <path class="st2" d="M866.68,783.02v14.4h-3.35v-14.07c0-5.24-2.74-7.93-7.46-7.93-5.34,0-8.69,3.31-8.69,8.97v13.03h-3.35v-24.84h3.21v4.58c1.79-3.02,5.15-4.77,9.45-4.77,6.04,0,10.2,3.49,10.2,10.62Z"/>
    <path class="st2" d="M898.56,762.38v35.04h-3.21v-4.91c-2.03,3.35-5.48,5.15-9.59,5.15-7.08,0-12.37-5.15-12.37-12.66s5.29-12.61,12.37-12.61c3.97,0,7.37,1.7,9.45,4.91v-14.92h3.35ZM895.25,785c0-5.81-3.97-9.68-9.21-9.68s-9.26,3.87-9.26,9.68,3.97,9.68,9.26,9.68,9.21-3.87,9.21-9.68Z"/>
    <path class="st2" d="M956.74,772.58l-9.4,24.84h-3.16l-7.84-20.35-7.84,20.35h-3.16l-9.35-24.84h3.21l7.79,21.11,7.98-21.11h2.88l7.93,21.11,7.89-21.11h3.07Z"/>
    <path class="st2" d="M982.72,786.04h-20.78c.38,5.2,4.35,8.64,9.78,8.64,3.02,0,5.71-1.09,7.6-3.26l1.89,2.17c-2.22,2.64-5.67,4.06-9.59,4.06-7.74,0-13.03-5.29-13.03-12.66s5.15-12.61,12.14-12.61,12.04,5.15,12.04,12.61c0,.28-.05.66-.05,1.04ZM961.94,783.54h17.62c-.42-4.86-3.97-8.26-8.83-8.26s-8.36,3.4-8.79,8.26Z"/>
    <path class="st2" d="M989.61,762.38h3.35v35.04h-3.35v-35.04Z"/>
    <path class="st2" d="M1002.32,762.38h3.35v35.04h-3.35v-35.04Z"/>
    <path class="st2" d="M1012.85,795.06c0-1.46,1.13-2.55,2.5-2.55s2.55,1.09,2.55,2.55-1.18,2.6-2.55,2.6-2.5-1.13-2.5-2.6Z"/>
  </g>
</svg>