<?xml version="1.0" encoding="UTF-8"?>
<svg id="Layer_1" xmlns="http://www.w3.org/2000/svg" version="1.1" viewBox="0 0 512 256">
  <!-- Generator: Adobe Illustrator 30.1.0, SVG Export Plug-In . SVG Version: 2.1.1 Build 136)  -->
  <defs>
    <style>
      .st0 {
        fill: #615c3c;
      }
    </style>
  </defs>
  <g>
    <path class="st0" d="M359.75,151.88v1.15h-37.09v-1.15c7.04,0,10.35-.43,11.5-5.89V60.16l-35.22,92.87h-1.58l-39.25-87.55v65.84c0,18.83,4.74,20.7,17.83,20.7v1.01h-37.23v-1.01c13.22,0,17.83-1.87,17.83-20.7v-56.64c0-18.83-1.01-20.7-14.23-20.7v-1.01h25.88l35.94,82.09,31.34-82.09h27.03v1.01c-13.23,0-14.23,1.87-14.23,20.7v71.31c1.01,5.46,4.46,5.89,11.5,5.89Z"/>
    <path class="st0" d="M471.59,153.03h-44.57v-1.01c13.23,0,15.38-2.73,8.48-20.56l-.86-1.87h-48.02l-1.29,3.16c-6.61,17.68-4.03,19.26,9.2,19.26v1.01h-32.06v-1.01c8.48,0,12.51-1.01,17.4-11.07l30.05-74.04-5.46-13.95h13.66l29.61,72.31c9.63,23.58,12.51,26.74,23.86,26.74v1.01ZM434.07,128.02l-23.15-58.37-23.72,58.37h46.87Z"/>
  </g>
  <path class="st0" d="M186.06,154.47c-31.63,0-54.92-22.28-54.92-52.47s22.43-50.46,54.05-50.46,54.92,20.13,54.92,50.6-22.43,52.33-54.05,52.33ZM185.2,52.97c-30.05,0-41.22,25.16-41.22,49.89s12.47,50.17,42.08,50.17,40.94-25.3,40.94-49.88-12.33-50.17-41.8-50.17Z"/>
  <g>
    <path class="st0" d="M168.2,189.34v14.95h-1.75l-8.97-11.15v11.15h-2.14v-14.95h1.75l8.97,11.15v-11.15h2.14Z"/>
    <path class="st0" d="M190.76,200.56h-7.94l-1.64,3.74h-2.2l6.77-14.95h2.11l6.79,14.95h-2.24l-1.64-3.74ZM190.01,198.85l-3.22-7.33-3.22,7.33h6.45Z"/>
    <path class="st0" d="M205.41,189.34h2.14v14.95h-2.14v-14.95Z"/>
    <path class="st0" d="M220.58,189.34h2.14v13.09h8.09v1.86h-10.23v-14.95Z"/>
    <path class="st0" d="M254.73,202.59l.79-1.67c1.11,1,3.01,1.73,4.93,1.73,2.58,0,3.69-1,3.69-2.31,0-3.65-9.05-1.35-9.05-6.9,0-2.31,1.79-4.27,5.72-4.27,1.75,0,3.57.47,4.81,1.32l-.7,1.71c-1.3-.83-2.78-1.22-4.1-1.22-2.54,0-3.63,1.07-3.63,2.37,0,3.65,9.06,1.37,9.06,6.86,0,2.29-1.84,4.25-5.79,4.25-2.29,0-4.53-.77-5.72-1.88Z"/>
    <path class="st0" d="M287.43,200.56h-7.94l-1.64,3.74h-2.2l6.77-14.95h2.11l6.79,14.95h-2.24l-1.64-3.74ZM286.68,198.85l-3.22-7.33-3.22,7.33h6.45Z"/>
    <path class="st0" d="M302.08,189.34h2.14v13.09h8.09v1.86h-10.23v-14.95Z"/>
    <path class="st0" d="M321.81,196.82c0-4.38,3.37-7.65,7.97-7.65s7.92,3.25,7.92,7.65-3.37,7.65-7.92,7.65-7.97-3.27-7.97-7.65ZM335.57,196.82c0-3.31-2.48-5.74-5.79-5.74s-5.83,2.43-5.83,5.74,2.48,5.74,5.83,5.74,5.79-2.43,5.79-5.74Z"/>
    <path class="st0" d="M362.37,189.34v14.95h-1.75l-8.97-11.15v11.15h-2.14v-14.95h1.75l8.97,11.15v-11.15h2.14Z"/>
  </g>
  <path class="st0" d="M125.23,121.69l-1.29,31.34H40.41v-1.15c8.77,0,11.93-.72,11.93-10.78v-76.19c0-10.06-3.16-10.78-11.93-10.78v-1.15h37.09v1.15c-8.77,0-11.93.72-11.93,10.78v76.19c0,8.05,2.01,10.06,7.19,10.64h24.87c17.68,0,23.86-13.37,26.74-30.19l.86.14Z"/>
</svg>